STARTFONT 2.1
COMMENT 
COMMENT This file has been produced by ttf2bdf written by Subhabrata Biswas
COMMENT 
COMMENT For comments, questions, bug reports, send a mail to
COMMENT                                           subhabrata.biswas@usa.net
COMMENT 
FONT -*-Vonique 64-Bold-R-Normal--64-480-96-96-c-33--fontspecific
SIZE 48 96 96
FONTBOUNDINGBOX 91 67 -2 -30
STARTPROPERTIES 15
FOUNDRY "Misc"
FAMILY_NAME "Vonique 64"
WEIGHT_NAME "Bold"
SLANT "R"
SETWIDTH_NAME "Normal"
PIXEL_SIZE 32
POINT_SIZE 480
RESOLUTION_X 96
RESOLUTION_Y 96
SPACING "C"
CHARSET_ENCODING "fontspecific"
FONT_ASCENT 54
FONT_DESCENT 13
DEFAULT_CHAR 31
COPYRIGHT "You may wish to put your copyright here"
ENDPROPERTIES
CHARS 226
STARTCHAR C0030
ENCODING 30
SWIDTH 500 0
DWIDTH 32 0
BBX 26 45 3 0
BITMAP
FFFFFFC0
FFFFFFC0
C00000C0
C00000C0
C00000C0
C00000C0
C00000C0
C07F00C0
C1FFC0C0
C387E0C0
C303E0C0
C203F0C0
C003F0C0
C003F0C0
C003E0C0
C003E0C0
C007C0C0
C007C0C0
C00F80C0
C00F00C0
C01E00C0
C01E00C0
C03C00C0
C03800C0
C07800C0
C07000C0
C07000C0
C07000C0
C07000C0
C03000C0
C03800C0
C00000C0
C01000C0
C03800C0
C07C00C0
C07E00C0
C07C00C0
C03800C0
C00000C0
C00000C0
C00000C0
C00000C0
C00000C0
FFFFFFC0
FFFFFFC0
ENDCHAR
STARTCHAR C0031
ENCODING 31
SWIDTH 500 0
DWIDTH 32 0
BBX 26 45 3 0
BITMAP
FFFFFFC0
FFFFFFC0
C00000C0
C00000C0
C00000C0
C00000C0
C00000C0
C07F00C0
C1FFC0C0
C387E0C0
C303E0C0
C203F0C0
C003F0C0
C003F0C0
C003E0C0
C003E0C0
C007C0C0
C007C0C0
C00F80C0
C00F00C0
C01E00C0
C01E00C0
C03C00C0
C03800C0
C07800C0
C07000C0
C07000C0
C07000C0
C07000C0
C03000C0
C03800C0
C00000C0
C01000C0
C03800C0
C07C00C0
C07E00C0
C07C00C0
C03800C0
C00000C0
C00000C0
C00000C0
C00000C0
C00000C0
FFFFFFC0
FFFFFFC0
ENDCHAR
STARTCHAR C0032- 
ENCODING 32
SWIDTH 250 0
DWIDTH 16 0
BBX 1 1 0 -1
BITMAP
00
ENDCHAR
STARTCHAR C0033-!
ENCODING 33
SWIDTH 140 0
DWIDTH 9 0
BBX 7 47 0 -1
BITMAP
7C
7C
7C
7C
7C
7C
7C
7C
7C
7C
7C
7C
7C
7C
7C
7C
7C
7C
7C
7C
7C
7C
7C
7C
7C
7C
7C
7C
7C
7C
7C
7C
7C
7C
7C
7C
7C
7C
7C
00
38
7C
FE
FE
FE
FE
7C
ENDCHAR
STARTCHAR C0034-"
ENCODING 34
SWIDTH 218 0
DWIDTH 14 0
BBX 12 16 0 30
BITMAP
F9F0
F9F0
F9F0
F9F0
F9F0
F9F0
F9F0
F9F0
F9F0
F9F0
F9F0
F9F0
F9F0
F9F0
F9F0
F9F0
ENDCHAR
STARTCHAR C0035-#
ENCODING 35
SWIDTH 546 0
DWIDTH 35 0
BBX 33 43 0 1
BITMAP
000F807C00
000F807800
000F80F800
000F00F800
001F00F800
001F00F000
001F01F000
001F01F000
003E01F000
003E01F000
003E03E000
003E03E000
1FFFFFFF80
1FFFFFFF80
1FFFFFFF80
1FFFFFFF80
007807C000
00F807C000
00F8078000
00F80F8000
00F00F8000
01F00F8000
01F00F0000
01F01F0000
FFFFFFFC00
FFFFFFFC00
FFFFFFFC00
FFFFFFFC00
FFFFFFFC00
07C03E0000
07C03C0000
07C07C0000
07C07C0000
0F807C0000
0F80780000
0F80F80000
0F80F80000
1F00F80000
1F00F80000
1F01F00000
1F01F00000
1E01F00000
3E01F00000
ENDCHAR
STARTCHAR C0036-$
ENCODING 36
SWIDTH 546 0
DWIDTH 35 0
BBX 33 53 0 -4
BITMAP
0003E00000
0003E00000
0003E00000
0003E00000
000FF80000
003FFC0000
007FFE0000
007FFF0000
00FFFF8000
00FBEF8000
01F3EF8000
01F3E7C000
01F3E7C000
01F3E7C000
01F3E00000
01FBE00000
00FBE00000
00FFE00000
007FFC0000
003FFF0000
001FFFC000
0007FFE000
0003EFF000
0003E3F800
0003E0FC00
0003E07C00
0003E03E00
0003E03E00
0003E01F00
0003E01F00
0003E00F00
0003E00F80
0003E00F80
F803E00F80
F803E00F80
F803E00F80
F803E00F00
7803E01F00
7C03E01F00
7C03E03F00
3E03E03E00
3F03E07E00
1F83E0FC00
0FC3E3F800
0FFBEFF000
07FFFFE000
01FFFFC000
00FFFF8000
003FFE0000
0003E00000
0003E00000
0003E00000
0003E00000
ENDCHAR
STARTCHAR C0037-%
ENCODING 37
SWIDTH 703 0
DWIDTH 45 0
BBX 43 40 0 3
BITMAP
01FC00000000
07FF00000000
0FFF80000000
1FFFC00F8000
3F87E01F0000
7E03F01F0000
7C01F03E0000
F800F83E0000
F800787C0000
F000787C0000
F00078F80000
F00078F80000
F80079F00000
F800F9F00000
7C01F3E00000
7E03F7E00000
3F8FE7C00000
1FFFCFC00000
0FFF8F800000
07FF1F07F800
01FC1F1FFE00
00003E3FFF00
00003E7FFF80
00007CFE1FC0
00007CF807C0
0000F9F003E0
0000F9E001E0
0001F3E001E0
0001F3E001E0
0003E3E001E0
0003E3E001E0
0007C1E001E0
0007C1F003E0
000F81F003E0
000F80F807C0
001F00FF3F80
001F007FFF80
003E003FFF00
0000001FFC00
00000003F000
ENDCHAR
STARTCHAR C0038-&
ENCODING 38
SWIDTH 687 0
DWIDTH 44 0
BBX 43 48 0 -2
BITMAP
0003FC000000
000FFF000000
001FFF800000
003FFFC00000
007FFFE00000
007F07E00000
00FC03F00000
00FC03F00000
00F801F00000
00F801F00000
00F801F00000
00F801F00000
00FC03F00000
00FE00000000
00FF80000000
03FFF0000000
07FF00000000
0FF800000000
0FF000000000
1FC000000FC0
3F8000001FC0
3F0000007F80
7E0003FFFF00
7E000FFFFE00
7C003FFFFC00
FC007FFFF000
FC00FFFFF000
F801FE01F000
F803F801F000
F803F001F000
F807E001F000
F8000001F000
FC000003F000
FC000003F000
7C000003E000
7E000007E000
7E000007E000
3F00000FC000
3F80001FC000
1FC0003F8000
0FF0007F0000
07FC03FF0000
07FFFFFE0000
01FFFFF80000
00FFFFF00000
007FFFE00000
000FFF000000
0000F0000000
ENDCHAR
STARTCHAR C0039-'
ENCODING 39
SWIDTH 234 0
DWIDTH 15 0
BBX 14 7 0 47
BITMAP
00FC
01F8
01F0
03F0
03E0
07E0
07C0
0F80
1F80
1F00
3F00
3E00
7C00
FC00
ENDCHAR
STARTCHAR C0040-(
ENCODING 40
SWIDTH 250 0
DWIDTH 16 0
BBX 15 47 0 -1
BITMAP
0010
0038
007C
007E
00FC
01F8
03F0
03E0
07E0
07C0
0F80
0F80
1F00
1F00
1F00
3E00
3E00
3E00
7C00
7C00
7C00
7C00
7C00
7C00
7C00
7C00
7C00
7C00
7C00
7C00
3C00
3E00
3E00
3F00
1F00
1F80
0F80
0FC0
07C0
07E0
03F0
01F8
01FC
00FE
007C
0038
0010
ENDCHAR
STARTCHAR C0041-)
ENCODING 41
SWIDTH 250 0
DWIDTH 16 0
BBX 15 47 0 -1
BITMAP
1000
3800
7C00
FC00
7E00
3F00
1F00
1F80
0FC0
07C0
07E0
03E0
03F0
01F0
01F0
00F8
00F8
00F8
0078
007C
007C
007C
007C
007C
007C
007C
007C
007C
007C
007C
00F8
00F8
00F8
01F0
01F0
03F0
03E0
07E0
0FC0
0F80
1F80
3F00
7E00
FE00
7C00
3800
1000
ENDCHAR
STARTCHAR C0042-*
ENCODING 42
SWIDTH 406 0
DWIDTH 26 0
BBX 24 24 0 22
BITMAP
007C00
007C00
007C20
0C7C70
1E7CF8
3F7DFC
1FFFF8
0FFFF0
07FFE0
03FFC0
FFFFFF
FFFFFF
FFFFFF
FFFFFF
FFFFFF
07FFC0
0FFFE0
1FFFF0
3FFDF8
3F7CF8
1E7C70
0C7C20
007C00
007C00
ENDCHAR
STARTCHAR C0043-+
ENCODING 43
SWIDTH 437 0
DWIDTH 28 0
BBX 26 26 0 6
BITMAP
003E0000
003E0000
003E0000
003E0000
003E0000
003E0000
003E0000
003E0000
003E0000
003E0000
003E0000
FFFFFFC0
FFFFFFC0
FFFFFFC0
FFFFFFC0
003E0000
003E0000
003E0000
003E0000
003E0000
003E0000
003E0000
003E0000
003E0000
003E0000
003E0000
ENDCHAR
STARTCHAR C0044-,
ENCODING 44
SWIDTH 187 0
DWIDTH 12 0
BBX 11 10 0 -4
BITMAP
03E0
07E0
0FC0
0F80
1F80
1F00
3E00
7E00
7C00
FC00
ENDCHAR
STARTCHAR C0045--
ENCODING 45
SWIDTH 437 0
DWIDTH 28 0
BBX 26 4 0 17
BITMAP
FFFFFFC0
FFFFFFC0
FFFFFFC0
FFFFFFC0
ENDCHAR
STARTCHAR C0046-.
ENCODING 46
SWIDTH 140 0
DWIDTH 9 0
BBX 7 7 0 -1
BITMAP
38
7C
FE
FE
FE
FE
7C
ENDCHAR
STARTCHAR C0047-/
ENCODING 47
SWIDTH 468 0
DWIDTH 30 0
BBX 29 47 0 -1
BITMAP
000000F8
000000F8
000001F0
000001F0
000003E0
000007E0
000007C0
00000FC0
00000F80
00001F80
00001F00
00003F00
00003E00
00007E00
00007C00
0000FC00
0000F800
0001F800
0001F000
0003F000
0003E000
0007C000
0007C000
000F8000
000F8000
001F0000
001F0000
003E0000
003E0000
007C0000
00FC0000
00F80000
01F80000
01F00000
03F00000
03E00000
07E00000
07C00000
0FC00000
0F800000
1F800000
1F000000
3F000000
3E000000
7E000000
7C000000
F8000000
ENDCHAR
STARTCHAR C0048-0
ENCODING 48
SWIDTH 625 0
DWIDTH 40 0
BBX 38 47 0 -1
BITMAP
0003FF0000
000FFFE000
003FFFF000
007FFFFC00
00FFFFFE00
01FE01FF00
03F8007F00
07F0001F80
0FE0000FC0
0FC00007E0
1F800007E0
1F000003F0
3F000001F0
3E000001F0
7E000000F8
7C000000F8
7C000000F8
7C0000007C
F80000007C
F80000007C
F80000007C
F80000007C
F80000007C
F80000007C
F80000007C
F80000007C
F80000007C
F80000007C
F80000007C
7C0000007C
7C000000F8
7C000000F8
7E000000F8
3E000001F8
3F000001F0
1F000003F0
1F800007E0
0FC00007E0
0FC0000FC0
07E0001F80
03F8007F80
01FE00FF00
01FFFFFE00
007FFFFC00
003FFFF000
001FFFE000
0003FF0000
ENDCHAR
STARTCHAR C0049-1
ENCODING 49
SWIDTH 156 0
DWIDTH 10 0
BBX 8 47 0 -1
BITMAP
FF
FF
FF
FF
FF
1F
1F
1F
1F
1F
1F
1F
1F
1F
1F
1F
1F
1F
1F
1F
1F
1F
1F
1F
1F
1F
1F
1F
1F
1F
1F
1F
1F
1F
1F
1F
1F
1F
1F
1F
1F
1F
1F
1F
1F
1F
1F
ENDCHAR
STARTCHAR C0050-2
ENCODING 50
SWIDTH 484 0
DWIDTH 31 0
BBX 29 47 0 -1
BITMAP
0007E000
001FF800
003FFE00
007FFF00
00FFFF80
01FC3F80
01F80FC0
01F00FC0
03F007C0
03F007C0
03F007C0
01F00F80
01F00F80
00001F80
00001F00
00003F00
00007E00
00007C00
0000FC00
0000F800
0001F800
0001F000
0003F000
0007E000
0007C000
000FC000
000F8000
001F8000
001F0000
003F0000
007E0000
007C0000
00FC0000
00F80000
01F80000
03F00000
03F00000
07E00000
07C00000
0FC00000
0F800000
1F800000
3FFFFFF8
3FFFFFF8
7FFFFFF8
7FFFFFF8
FFFFFFF8
ENDCHAR
STARTCHAR C0051-3
ENCODING 51
SWIDTH 562 0
DWIDTH 36 0
BBX 34 48 0 -1
BITMAP
0001E00000
000FFC0000
001FFE0000
003FFF0000
007FFF8000
00FF3FC000
00FC0FC000
01F807C000
01F007E000
01F003E000
01F003E000
01F007E000
01F807E000
00000FC000
00001FC000
00003FC000
00007F8000
00003FE000
00001FF000
000007F800
000001FC00
000000FE00
0000007E00
0000003F00
0000001F80
0000001F80
0000000F80
0000000FC0
00000007C0
00000007C0
00000007C0
00000007C0
00000007C0
F8000007C0
F8000007C0
FC00000FC0
7C00000F80
7E00001F80
3E00001F80
3F00003F00
1F80007E00
1FE001FE00
0FF003FC00
07FFFFF800
03FFFFF000
01FFFFE000
007FFF8000
001FFE0000
ENDCHAR
STARTCHAR C0052-4
ENCODING 52
SWIDTH 578 0
DWIDTH 37 0
BBX 36 48 0 -1
BITMAP
0000000000
0000000200
0000000600
0000000E00
0000001E00
0000003E00
0000007E00
000000FE00
000000FE00
000001FE00
000003FE00
000007FE00
00000FFE00
00001FFE00
00003FFE00
00007F7E00
00007F7E00
0000FE7E00
0001FC7E00
0003F87E00
0007F07E00
000FE07E00
001FC07E00
001FC07E00
003F807E00
007F007E00
00FE007E00
01FC007E00
03F8007E00
07F0007E00
0FFFFFFFF0
0FFFFFFFF0
1FFFFFFFF0
3FFFFFFFF0
7FFFFFFFF0
0000007E00
0000007E00
0000007E00
0000007E00
0000007E00
0000007E00
0000007E00
0000007E00
0000007E00
0000007E00
0000007E00
0000007E00
0000007E00
ENDCHAR
STARTCHAR C0053-5
ENCODING 53
SWIDTH 609 0
DWIDTH 39 0
BBX 37 47 0 -1
BITMAP
00FFFF0000
00FFFF0000
00FFFF0000
00FFFF0000
00FFFF0000
00F8000000
00F8000000
00F8000000
00F8000000
00F8000000
00F8000000
00FFFE0000
00FFFFC000
00FFFFF000
00FFFFFC00
00FFFFFE00
000003FF00
0000007F80
0000001FC0
0000000FC0
00000007E0
00000003E0
00000003F0
00000001F0
00000001F0
00000000F8
00000000F8
00000000F8
00000000F8
00000000F8
00000000F8
00000000F8
F8000000F8
FC000001F0
7C000001F0
7E000003F0
3E000007E0
3F000007E0
1F80000FC0
1FC0003F80
0FF000FF80
07FE03FF00
03FFFFFC00
00FFFFF800
007FFFF000
001FFF8000
0001FC0000
ENDCHAR
STARTCHAR C0054-6
ENCODING 54
SWIDTH 656 0
DWIDTH 42 0
BBX 40 48 0 -2
BITMAP
000007F000
00000FE000
00001FC000
00007F8000
0000FE0000
0001FC0000
0003F80000
0007F00000
000FFF0000
001FFFE000
003FFFFC00
007FFFFE00
00FFFFFF80
01FFC3FFC0
03FC003FE0
07F8000FF0
0FE00007F0
1FC00003F8
1F800001FC
3F000000FC
3F0000007E
7E0000007E
7E0000003E
7C0000003E
7C0000001F
FC0000001F
FC0000001F
FC0000001F
FC0000001F
FC0000001F
FC0000001F
7C0000001F
7C0000003E
7E0000003E
7E0000007E
3F0000007C
3F000000FC
1F800001F8
1FC00001F8
0FE00007F0
07F0000FE0
03FC003FC0
01FFC1FF80
00FFFFFF00
007FFFFE00
001FFFF800
0007FFE000
00003C0000
ENDCHAR
STARTCHAR C0055-7
ENCODING 55
SWIDTH 578 0
DWIDTH 37 0
BBX 35 47 0 -1
BITMAP
FFFFFFFFE0
FFFFFFFFE0
FFFFFFFFC0
FFFFFFFF80
FFFFFFFF80
0000003F00
0000003E00
0000007E00
000000FC00
000000FC00
000001F800
000003F000
000003F000
000007E000
000007C000
00000FC000
00001F8000
00001F0000
00003F0000
00007E0000
00007E0000
0000FC0000
0001F80000
0001F80000
0003F00000
0003E00000
0007E00000
000FC00000
000F800000
001F800000
003F000000
003F000000
007E000000
00FC000000
00FC000000
01F8000000
01F0000000
03F0000000
07E0000000
07C0000000
0FC0000000
1F80000000
1F00000000
3F00000000
7E00000000
7E00000000
FC00000000
ENDCHAR
STARTCHAR C0056-8
ENCODING 56
SWIDTH 562 0
DWIDTH 36 0
BBX 34 48 0 -2
BITMAP
0007F80000
001FFE0000
003FFF0000
007FFF8000
00FFFFC000
00FC0FC000
00F807C000
01F807E000
01F003E000
01F003E000
01F003E000
01F807E000
00FC0FC000
00FE1FC000
00FFFFC000
007FFF8000
00FFFFC000
01FFFFE000
07FFFFF800
0FFC0FFC00
0FE001FC00
1FC000FE00
3F80007F00
3F00003F00
7E00001F80
7C00000F80
7C00000F80
FC00000FC0
F8000007C0
F8000007C0
F8000007C0
F8000007C0
F8000007C0
F8000007C0
FC00000FC0
7C00000F80
7C00000F80
7E00001F80
3F00003F00
3F80007F00
1FC000FE00
0FF003FC00
07FE1FF800
03FFFFF000
01FFFFE000
007FFF8000
001FFE0000
0003F00000
ENDCHAR
STARTCHAR C0057-9
ENCODING 57
SWIDTH 656 0
DWIDTH 42 0
BBX 40 48 0 -1
BITMAP
0000000000
0003FFC000
001FFFF800
003FFFFC00
00FFFFFF00
01FFC7FF80
03FC007FC0
07F0001FE0
0FE00007F0
1FC00003F0
1F800001F8
3F000000FC
3E000000FC
7E0000007E
7C0000007E
7C0000003E
7C0000003E
F80000003F
F80000003F
F80000003F
F80000003F
F80000003F
F80000003F
F80000003E
7C0000003E
7C0000007E
7C0000007E
7E0000007C
3F000000FC
3F000001F8
1F800003F8
0FC00007F0
0FF0000FF0
07FC003FE0
03FF81FFC0
01FFFFFF80
007FFFFF00
003FFFFC00
000FFFF800
0001FFF000
00000FE000
00001FC000
00003F8000
00007F0000
0000FE0000
0001FC0000
0007F80000
000FE00000
ENDCHAR
STARTCHAR C0058-:
ENCODING 58
SWIDTH 140 0
DWIDTH 9 0
BBX 7 21 0 12
BITMAP
7C
FE
FE
FE
FE
7C
38
00
00
00
00
00
00
00
38
7C
FE
FE
FE
FE
7C
ENDCHAR
STARTCHAR C0059-;
ENCODING 59
SWIDTH 187 0
DWIDTH 12 0
BBX 11 24 0 9
BITMAP
07C0
0FE0
0FE0
0FE0
0FE0
07C0
0380
0000
0000
0000
0000
0000
0000
0000
0000
07E0
07C0
0FC0
1F80
1F00
3F00
3E00
7C00
FC00
ENDCHAR
STARTCHAR C0060-<
ENCODING 60
SWIDTH 531 0
DWIDTH 34 0
BBX 33 34 0 6
BITMAP
0000000000
0000000180
0000000780
0000001F80
0000007F80
000001FF80
000007FF00
00001FFC00
00007FF000
0001FFC000
0007FF0000
001FFC0000
007FF00000
01FFC00000
03FF000000
0FFE000000
3FF8000000
FFE0000000
3FF8000000
0FFE000000
03FF800000
00FFE00000
003FF80000
000FFE0000
0003FF8000
0000FFE000
00003FF800
00000FFC00
000007FF00
000001FF80
0000007F80
0000001F80
0000000780
0000000180
ENDCHAR
STARTCHAR C0061-=
ENCODING 61
SWIDTH 437 0
DWIDTH 28 0
BBX 26 13 0 12
BITMAP
FFFFFFC0
FFFFFFC0
FFFFFFC0
FFFFFFC0
00000000
00000000
00000000
00000000
FFFFFFC0
FFFFFFC0
FFFFFFC0
FFFFFFC0
FFFFFFC0
ENDCHAR
STARTCHAR C0062->
ENCODING 62
SWIDTH 531 0
DWIDTH 34 0
BBX 33 34 0 6
BITMAP
0000000000
C000000000
F000000000
FC00000000
FF00000000
FFC0000000
7FF0000000
1FFC000000
07FF000000
01FFC00000
007FF00000
001FFC0000
0007FF0000
0001FF8000
0000FFE000
00003FF800
00000FFE00
000003FF80
00000FFE00
00003FF800
0000FFE000
0003FF8000
000FFE0000
003FF80000
00FFE00000
03FF800000
0FFE000000
3FF8000000
FFE0000000
FF80000000
FF00000000
FC00000000
F000000000
C000000000
ENDCHAR
STARTCHAR C0063-?
ENCODING 63
SWIDTH 625 0
DWIDTH 40 0
BBX 38 48 0 -1
BITMAP
0000780000
000FFFC000
003FFFF000
00FFFFFC00
01FFFFFE00
03FF87FF00
07F8007F80
0FE0001FC0
1FC0000FE0
1F800007F0
3F000003F0
7E000001F8
7E000000F8
7C000000FC
FC0000007C
FC0000007C
F80000007C
F80000007C
F80000007C
F80000007C
000000007C
000000007C
000000007C
00000000FC
00000000F8
00000001F8
00000001F8
00000003F0
00000007E0
0000000FE0
0000003FC0
000001FF80
00007FFF00
00007FFE00
00007FF800
00007FE000
00007F8000
00007C0000
00007C0000
00007C0000
0000000000
0000380000
0000FC0000
0000FE0000
0000FE0000
0000FE0000
0000FC0000
00007C0000
ENDCHAR
STARTCHAR C0064-@
ENCODING 64
SWIDTH 796 0
DWIDTH 51 0
BBX 49 47 0 -1
BITMAP
00003FFE000000
0001FFFFC00000
0007FFFFF00000
001FFFFFF80000
003FFC3FFE0000
007FC001FF0000
01FE00007F8000
03FC00001FC000
03F000000FE000
07E0000003F000
0FC0000001F800
1F8007F001F800
1F003FFE00FC00
3F00FFFF007C00
3E01FFFFC03E00
7E03FFFFE03E00
7C07F80FFC1F00
7C07E003FC1F00
780FC001FC1F00
F80F8000FC0F00
F81F0000FC0F00
F81F00007C0F80
F81F00007C0F80
F81E00007C0F80
F81E00007C0F80
F81E00007C0F80
F81E00007C0F80
F81F00007C0F80
F81F00007C0F00
781F8000FE0F00
7C0F8001FE1F00
7C0FC003FF1F00
7E07F007FF3F00
3E03FC1FFFFE00
3F01FFFFCFFE00
1F00FFFF87FC00
1F807FFF03F800
0FC01FFC00E000
07E00000000000
03F00000000000
03FC0000000000
01FE0000000000
00FFC000000000
003FE000000000
001FC000000000
0007C000000000
0001C000000000
ENDCHAR
STARTCHAR C0065-A
ENCODING 65
SWIDTH 781 0
DWIDTH 50 0
BBX 50 48 0 -1
BITMAP
00000000000000
00000080000000
000000C0000000
000001E0000000
000001E0000000
000003F0000000
000003F0000000
000007F8000000
000007F8000000
00000FFC000000
00000FFC000000
00001FFE000000
00001F7E000000
00003F3F000000
00003E3F000000
00007E1F800000
0000FC1F800000
0000FC0FC00000
0001F807C00000
0001F807E00000
0003F003E00000
0003F003F00000
0007E001F00000
0007E001F80000
000FC000FC0000
000FC000FC0000
001F80007E0000
001F80007E0000
003F00003F0000
003F00003F0000
007E00001F8000
007C00001F8000
00FC00000FC000
00F800000FC000
01F8000007E000
03F0000003E000
03F0000003F000
07E0000001F000
07E0000001F800
0FC0000000F800
0FC0000000FC00
1F800000007C00
1F800000007E00
3F000000003F00
3F000000003F00
7E000000001F80
7E000000001F80
FC000000000FC0
ENDCHAR
STARTCHAR C0066-B
ENCODING 66
SWIDTH 593 0
DWIDTH 38 0
BBX 36 47 0 -1
BITMAP
FFFFF80000
FFFFFF8000
FFFFFFC000
FFFFFFF000
FFFFFFF000
F80007F800
F80001F800
F80000FC00
F800007C00
F800007C00
F80000FC00
F80000F800
F80003F800
FFFFFFF800
FFFFFFF000
FFFFFFF000
FFFFFFFC00
FFFFFFFE00
F80001FF00
F800007F80
F800001FC0
F800000FC0
F8000007E0
F8000003E0
F8000003E0
F8000003F0
F8000001F0
F8000001F0
F8000001F0
F8000001F0
F8000001F0
F8000001F0
F8000001F0
F8000001F0
F8000003F0
F8000003E0
F8000007E0
F8000007E0
F800000FC0
F800001F80
F800007F80
F80003FF00
FFFFFFFE00
FFFFFFF800
FFFFFFE000
FFFFFF8000
FFFFFC0000
ENDCHAR
STARTCHAR C0067-C
ENCODING 67
SWIDTH 750 0
DWIDTH 48 0
BBX 47 48 0 -2
BITMAP
00007FFE0000
0003FFFF8000
000FFFFFE000
001FFFFFF800
007FFE7FFC00
00FF8003FF00
01FE00007F80
03F800003FC0
07F000000FC0
0FE0000007E0
0FC0000003F0
1F80000001F8
1F00000001F8
3F00000000FC
3E000000007C
7C000000007C
7C000000003E
7C000000003E
F80000000000
F80000000000
F80000000000
F80000000000
F80000000000
F80000000000
F80000000000
F80000000000
F80000000000
F80000000000
F80000000000
7C000000003E
7C000000003E
7C000000007C
3E000000007C
3F00000000FC
3F00000001F8
1F80000001F8
0FC0000003F0
0FE0000007E0
07F000000FE0
03F800003FC0
01FE00007F80
00FF8003FF00
007FFC3FFE00
001FFFFFF800
000FFFFFF000
0003FFFFC000
00007FFE0000
000000000000
ENDCHAR
STARTCHAR C0068-D
ENCODING 68
SWIDTH 703 0
DWIDTH 45 0
BBX 43 47 0 -1
BITMAP
FFFFC0000000
FFFFFFE00000
FFFFFFFC0000
FFFFFFFF0000
FFFFFFFFC000
F80007FFE000
F800003FF000
F8000007F800
F8000001FC00
F8000000FE00
F80000003F00
F80000003F00
F80000001F80
F80000000F80
F80000000FC0
F800000007C0
F800000007C0
F800000003E0
F800000003E0
F800000003E0
F800000003E0
F800000003E0
F800000003E0
F800000003E0
F800000003E0
F800000003E0
F800000003E0
F800000003E0
F800000003E0
F800000003E0
F800000007C0
F800000007C0
F800000007C0
F80000000F80
F80000001F80
F80000001F80
F80000003F00
F80000007E00
F8000001FE00
F8000003FC00
F800001FF800
F80001FFF000
FFFFFFFFC000
FFFFFFFF8000
FFFFFFFE0000
FFFFFFF00000
FFFFFE000000
ENDCHAR
STARTCHAR C0069-E
ENCODING 69
SWIDTH 593 0
DWIDTH 38 0
BBX 36 47 0 -1
BITMAP
FFFFFFFFF0
FFFFFFFFF0
FFFFFFFFF0
FFFFFFFFF0
FFFFFFFFF0
F800000000
F800000000
F800000000
F800000000
F800000000
F800000000
F800000000
F800000000
F800000000
F800000000
F800000000
F800000000
F800000000
F800000000
F800000000
F800000000
F800000000
F800000000
F800000000
F800000000
F800000000
F800000000
F800000000
F800000000
F87FFFFFF0
F87FFFFFF0
F87FFFFFF0
F87FFFFFF0
F87FFFFFF0
F800000000
F800000000
F800000000
F800000000
F800000000
F800000000
F800000000
F800000000
FFFFFFFFF0
FFFFFFFFF0
FFFFFFFFF0
FFFFFFFFF0
FFFFFFFFF0
ENDCHAR
STARTCHAR C0070-F
ENCODING 70
SWIDTH 593 0
DWIDTH 38 0
BBX 36 47 0 -1
BITMAP
FFFFFFFFF0
FFFFFFFFF0
FFFFFFFFF0
FFFFFFFFF0
FFFFFFFFF0
F800000000
F800000000
F800000000
F800000000
F800000000
F800000000
F800000000
F800000000
F800000000
F800000000
F800000000
F800000000
F800000000
F800000000
F800000000
F800000000
F800000000
F800000000
F800000000
F800000000
F800000000
F800000000
F800000000
F800000000
F87FFFFFF0
F87FFFFFF0
F87FFFFFF0
F87FFFFFF0
F87FFFFFF0
F800000000
F800000000
F800000000
F800000000
F800000000
F800000000
F800000000
F800000000
F800000000
F800000000
F800000000
F800000000
F800000000
ENDCHAR
STARTCHAR C0071-G
ENCODING 71
SWIDTH 765 0
DWIDTH 49 0
BBX 48 49 0 -2
BITMAP
000003C00000
00007FFE0000
0003FFFFC000
000FFFFFF000
001FFFFFF800
007FFFFFFE00
00FFC003FF00
01FF0000FF80
03FC00003FC0
07F000000FE0
0FE0000007F0
0FC0000003F0
1F80000001F8
1F80000001F8
3F00000000FC
3E000000007C
7E000000007E
7C000000003E
7C000000003E
FC000000003F
FC0000000000
F80000000000
F80000000000
F80000000000
F80000000000
F80000000000
F80000000000
F80000000000
FC0000000000
FC0000000000
7C01FFFFFFFE
7C01FFFFFFFE
7E01FFFFFFFE
3E01FFFFFFFC
3F01FFFFFFFC
1F80000001F8
1F80000001F8
0FC0000003F0
0FE0000007E0
07F800001FE0
03FC00003FC0
01FF0000FF80
00FFC003FF00
007FFFFFFE00
001FFFFFF800
000FFFFFF000
0003FFFFC000
00007FFE0000
000000000000
ENDCHAR
STARTCHAR C0072-H
ENCODING 72
SWIDTH 640 0
DWIDTH 41 0
BBX 39 47 0 -1
BITMAP
F80000003E
F80000003E
F80000003E
F80000003E
F80000003E
F80000003E
F80000003E
F80000003E
F80000003E
F80000003E
F80000003E
F80000003E
F80000003E
F80000003E
F80000003E
F80000003E
F80000003E
F80000003E
F80000003E
F80000003E
F80000003E
F80000003E
F80000003E
F80000003E
F80000003E
F80000003E
F80000003E
F80000003E
F80000003E
FFFFFFFFFE
FFFFFFFFFE
FFFFFFFFFE
FFFFFFFFFE
FFFFFFFFFE
F80000003E
F80000003E
F80000003E
F80000003E
F80000003E
F80000003E
F80000003E
F80000003E
F80000003E
F80000003E
F80000003E
F80000003E
F80000003E
ENDCHAR
STARTCHAR C0073-I
ENCODING 73
SWIDTH 109 0
DWIDTH 7 0
BBX 5 47 0 -1
BITMAP
F8
F8
F8
F8
F8
F8
F8
F8
F8
F8
F8
F8
F8
F8
F8
F8
F8
F8
F8
F8
F8
F8
F8
F8
F8
F8
F8
F8
F8
F8
F8
F8
F8
F8
F8
F8
F8
F8
F8
F8
F8
F8
F8
F8
F8
F8
F8
ENDCHAR
STARTCHAR C0074-J
ENCODING 74
SWIDTH 734 0
DWIDTH 47 0
BBX 45 59 0 -13
BITMAP
0000000000F8
0000000000F8
0000000000F8
0000000000F8
0000000000F8
0000000000F8
0000000000F8
0000000000F8
0000000000F8
0000000000F8
0000000000F8
0000000000F8
0000000000F8
0000000000F8
0000000000F8
0000000000F8
0000000000F8
0000000000F8
0000000000F8
0000000000F8
0000000000F8
0000000000F8
0000000000F8
0000000000F8
0000000000F8
0000000000F8
0000000000F8
0000000000F8
0000000000F8
0000000000F8
0000000000F8
0000000000F8
0000000000F8
0000000000F8
0000000000F8
0000000000F8
0000000000F8
0000000000F8
0000000000F8
0000000000F8
0000000000F8
0000000000F8
0000000000F8
0000000000F8
0000000000F8
0000000000F8
0000000000F8
0000000000F8
0000000000F8
0000000000F8
0000000000F8
0000000000F8
0000000000F8
0000000000F8
0000000000F8
0000000000F8
0000000000F8
0000000001F8
0000000001F0
0000000001F0
FC00000003F0
7C00000003E0
7E00000007E0
3F00000007E0
3F0000000FC0
1F8000001F80
0FC000003F80
0FF000007F00
07F80001FE00
03FE0007FC00
01FFC03FF800
007FFFFFF000
003FFFFFC000
000FFFFF8000
0003FFFE0000
00003FE00000
ENDCHAR
STARTCHAR C0075-K
ENCODING 75
SWIDTH 718 0
DWIDTH 46 0
BBX 45 59 0 -13
BITMAP
F800000003F8
F800000007F0
F80000000FE0
F80000001FC0
F80000003F80
F80000007F00
F8000000FE00
F8000001FC00
F8000003F800
F8000007F000
F800000FE000
F800001FC000
F800003F0000
F800007E0000
F80000FC0000
F80001F80000
F80003F00000
F80007E00000
F8000FC00000
F8001F800000
F8003F000000
F8007E000000
F800FC000000
F801F8000000
F803F0000000
F807E0000000
F80FC0000000
F81F80000000
F83F00000000
F87E00000000
F87F00000000
F83F80000000
F81FC0000000
F80FE0000000
F807F0000000
F803F8000000
F801FC000000
F800FE000000
F8007F000000
F8003F800000
F8001FC00000
F8000FE00000
F80007F00000
F80003F80000
F80001FC0000
F80000FE0000
F800007F0000
0000003F8000
0000001FC000
0000000FE000
00000007F000
00000003F800
00000001FC00
00000000FE00
000000007F00
000000003F80
000000001FC0
000000000FE0
0000000007F0
0000000003F8
ENDCHAR
STARTCHAR C0076-L
ENCODING 76
SWIDTH 593 0
DWIDTH 38 0
BBX 36 47 0 -1
BITMAP
F800000000
F800000000
F800000000
F800000000
F800000000
F800000000
F800000000
F800000000
F800000000
F800000000
F800000000
F800000000
F800000000
F800000000
F800000000
F800000000
F800000000
F800000000
F800000000
F800000000
F800000000
F800000000
F800000000
F800000000
F800000000
F800000000
F800000000
F800000000
F800000000
F800000000
F800000000
F800000000
F800000000
F800000000
F800000000
F800000000
F800000000
F800000000
F800000000
F800000000
F800000000
F800000000
FFFFFFFFF0
FFFFFFFFF0
FFFFFFFFF0
FFFFFFFFF0
FFFFFFFFF0
ENDCHAR
STARTCHAR C0077-M
ENCODING 77
SWIDTH 687 0
DWIDTH 44 0
BBX 42 50 0 -2
BITMAP
000000000000
800000000000
800000000040
C00000000040
C000000000C0
E000000001C0
F000000001C0
F000000003C0
F800000003C0
F800000007C0
FC00000007C0
FC0000000FC0
FE0000000FC0
FE0000001FC0
FF0000003FC0
FF8000003FC0
FF8000007FC0
FFC000007FC0
FFC00000FFC0
FFE00000FFC0
FFE00001FFC0
FBF00001FFC0
FBF00003F7C0
F9F80007F7C0
F9FC0007E7C0
F8FC000FC7C0
F8FE000FC7C0
F87E001F87C0
F87F001F87C0
F83F003F07C0
F81F803F07C0
F81F807E07C0
F80FC0FE07C0
F80FE0FC07C0
F807E1F807C0
F807F1F807C0
F803F3F007C0
F803FBF007C0
F801FFE007C0
F801FFE007C0
F800FFC007C0
F8007FC007C0
F8007F8007C0
F8003F0007C0
F8003F0007C0
F8001E0007C0
F8001E0007C0
F8000C0007C0
F8000C0007C0
000000000000
ENDCHAR
STARTCHAR C0078-N
ENCODING 78
SWIDTH 687 0
DWIDTH 44 0
BBX 42 48 0 -1
BITMAP
000000000000
8000000007C0
C000000007C0
E000000007C0
F000000007C0
F800000007C0
FC00000007C0
FE00000007C0
FF00000007C0
FF80000007C0
FFC0000007C0
FFE0000007C0
FFF0000007C0
FBF8000007C0
F9FC000007C0
F8FE000007C0
F87F000007C0
F83F800007C0
F81FC00007C0
F80FE00007C0
F807F00007C0
F803F80007C0
F801FC0007C0
F800FE0007C0
F8007F0007C0
F8003F8007C0
F8001FC007C0
F8000FE007C0
F80007F007C0
F80003F807C0
F80001FC07C0
F80000FE07C0
F800003F07C0
F800001F87C0
F800000FC7C0
F8000007E7C0
F8000003F7C0
F8000001FFC0
F8000000FFC0
F80000007FC0
F80000003FC0
F80000001FC0
F80000000FC0
F800000007C0
F800000003C0
F800000001C0
F800000000C0
F80000000040
ENDCHAR
STARTCHAR C0079-O
ENCODING 79
SWIDTH 781 0
DWIDTH 50 0
BBX 48 47 0 -1
BITMAP
00007FFC0000
0001FFFF8000
000FFFFFE000
001FFFFFF800
007FFFFFFC00
00FFC003FE00
01FE0000FF00
03F800003F80
07F000000FC0
07E0000007E0
0FC0000003F0
1F80000001F0
1F00000001F8
3F00000000FC
3E000000007C
7E000000007C
7C000000003E
7C000000003E
F8000000003E
F8000000003E
F8000000001E
F8000000001F
F8000000001F
F8000000001F
F8000000001F
F8000000001F
F8000000001E
F8000000003E
F8000000003E
7C000000003E
7C000000003E
7E000000007C
3E000000007C
3F00000000FC
1F00000001F8
1F80000001F0
0FC0000003F0
07E0000007E0
07F000000FC0
03F800003F80
01FE0000FF00
00FFC003FE00
007FFFFFFC00
001FFFFFF800
000FFFFFE000
0001FFFF8000
00007FFC0000
ENDCHAR
STARTCHAR C0080-P
ENCODING 80
SWIDTH 546 0
DWIDTH 35 0
BBX 33 47 0 -1
BITMAP
FFFF000000
FFFFF80000
FFFFFF0000
FFFFFF8000
FFFFFFE000
F8003FF000
F80007F800
F80001FC00
F80000FC00
F800007E00
F800003E00
F800003F00
F800001F00
F800001F00
F800001F00
F800000F80
F800000F80
F800000F80
F800000F80
F800000F80
F800001F00
F800001F00
F800001F00
F800003F00
F800003E00
F800007E00
F80000FC00
F80003FC00
F8000FF800
F800FFF000
FFFFFFE000
FFFFFF8000
FFFFFE0000
FFFFF80000
F800000000
F800000000
F800000000
F800000000
F800000000
F800000000
F800000000
F800000000
F800000000
F800000000
F800000000
F800000000
F800000000
ENDCHAR
STARTCHAR C0081-Q
ENCODING 81
SWIDTH 781 0
DWIDTH 50 0
BBX 48 59 0 -13
BITMAP
00007FFC0000
0001FFFF8000
000FFFFFE000
001FFFFFF800
007FFFFFFC00
00FFC003FE00
01FE0000FF00
03F800003F80
07F000000FC0
07E0000007E0
0FC0000003F0
1F80000001F0
1F00000001F8
3F00000000FC
3E000000007C
7E000000007C
7C000000003E
7C000000003E
F8000000003E
F8000000003E
F8000000001E
F8000000001F
F8000000001F
F8000000001F
F8000000001F
F8000000001F
F8000000001E
F8000000003E
F8000000003E
7C000000003E
7C000000003E
7E000000007C
3E000000007C
3F00000000FC
1F00000001F8
1F80000001F0
0FC0000003F0
07E0000007E0
07F000000FC0
03F800003F80
01FE0000FF00
00FFC003FE00
007FFFFFFC00
001FFFFFF800
000FFFFFE000
0011FFFF8000
00787FFC0000
00F800000000
00FC00000000
007F00000000
003FFFFF0000
001FFFFFC000
000FFFFFF000
0007FFFFF800
0000FFFFFC00
00000000FE00
000000007F00
000000001F00
000000001E00
000000000800
ENDCHAR
STARTCHAR C0082-R
ENCODING 82
SWIDTH 546 0
DWIDTH 35 0
BBX 33 47 0 -1
BITMAP
FFFF000000
FFFFF80000
FFFFFF0000
FFFFFF8000
FFFFFFE000
F8003FF000
F80007F800
F80001FC00
F80000FC00
F800007E00
F800003E00
F800003F00
F800001F00
F800001F00
F800001F00
F800000F80
F800000F80
F800000F80
F800000F80
F800000F80
F800001F00
F800001F00
F800001F00
F800003F00
F800003E00
F800007E00
F80000FC00
F80001FC00
F80007F800
F8007FF000
F8FFFFE000
F87FFF8000
F83FFE0000
F81FF80000
F80FE00000
F807F00000
F803F80000
F801FC0000
F800FE0000
F8007F0000
F8003F8000
F8001FC000
F8000FE000
F80007F000
F80003F800
F80001FC00
F80000FE00
ENDCHAR
STARTCHAR C0083-S
ENCODING 83
SWIDTH 562 0
DWIDTH 36 0
BBX 34 48 0 -2
BITMAP
0007F80000
001FFE0000
003FFF0000
007FFF8000
00FF3FC000
00FC0FC000
00F807E000
01F007E000
01F003E000
01F0000000
01F0000000
01F8000000
00F8000000
00FE000000
007FF80000
003FFF0000
001FFFC000
000FFFE000
0003FFF000
000007F800
000001FC00
000000FE00
0000003F00
0000003F00
0000001F80
0000000F80
0000000F80
00000007C0
00000007C0
00000007C0
F8000007C0
F8000007C0
F8000007C0
F8000007C0
F800000F80
7C00000F80
7C00000F80
7E00001F00
3F00003F00
3F80007E00
1FC000FE00
0FE003FC00
07FC1FF800
03FFFFF000
01FFFFE000
007FFF8000
001FFE0000
0000C00000
ENDCHAR
STARTCHAR C0084-T
ENCODING 84
SWIDTH 578 0
DWIDTH 37 0
BBX 35 47 0 -1
BITMAP
FFFFFFFFE0
FFFFFFFFE0
FFFFFFFFE0
FFFFFFFFE0
FFFFFFFFE0
0001F00000
0001F00000
0001F00000
0001F00000
0001F00000
0001F00000
0001F00000
0001F00000
0001F00000
0001F00000
0001F00000
0001F00000
0001F00000
0001F00000
0001F00000
0001F00000
0001F00000
0001F00000
0001F00000
0001F00000
0001F00000
0001F00000
0001F00000
0001F00000
0001F00000
0001F00000
0001F00000
0001F00000
0001F00000
0001F00000
0001F00000
0001F00000
0001F00000
0001F00000
0001F00000
0001F00000
0001F00000
0001F00000
0001F00000
0001F00000
0001F00000
0001F00000
ENDCHAR
STARTCHAR C0085-U
ENCODING 85
SWIDTH 687 0
DWIDTH 44 0
BBX 42 47 0 -1
BITMAP
F800000003C0
F800000003C0
F800000003C0
F800000003C0
F800000003C0
F800000003C0
F800000003C0
F800000003C0
F800000003C0
F800000003C0
F800000003C0
F800000003C0
F800000003C0
F800000003C0
F800000003C0
F800000003C0
F800000003C0
F800000003C0
F800000003C0
F800000003C0
F800000003C0
F800000003C0
F800000003C0
F800000003C0
F800000003C0
F800000003C0
F800000007C0
F800000007C0
7800000007C0
7C00000007C0
7C0000000F80
7E0000000F80
3E0000001F80
3F0000001F00
1F0000003F00
1F8000007E00
0FC000007E00
0FE00000FC00
07F00001F800
03F80007F800
01FE001FF000
00FFC0FFE000
007FFFFF8000
003FFFFF0000
000FFFFE0000
0003FFF00000
00007F800000
ENDCHAR
STARTCHAR C0086-V
ENCODING 86
SWIDTH 781 0
DWIDTH 50 0
BBX 50 48 0 -2
BITMAP
FC000000000FC0
7C000000001F80
7E000000001F80
3E000000003F00
3F000000003F00
1F000000007E00
1F800000007E00
0F80000000FC00
0FC0000000FC00
07E0000001F800
07E0000001F000
03F0000003F000
03F0000007E000
01F8000007E000
01F800000FC000
00FC00000FC000
00FC00001F8000
007E00001F8000
003E00003F0000
003F00003F0000
001F00007E0000
001F80007E0000
000F8000FC0000
000FC000FC0000
0007C001F80000
0007E001F80000
0003F003F00000
0003F003F00000
0001F807E00000
0001F807C00000
0000FC0FC00000
0000FC0F800000
00007E1F800000
00007E3F000000
00003F3F000000
00003F7E000000
00001FFE000000
00001FFC000000
00000FFC000000
000007F8000000
000007F8000000
000003F0000000
000003F0000000
000001E0000000
000001E0000000
000000C0000000
00000080000000
00000000000000
ENDCHAR
STARTCHAR C0087-W
ENCODING 87
SWIDTH 921 0
DWIDTH 59 0
BBX 60 48 0 -2
BITMAP
FC1F0000000F83F0
7C1F8000001F83E0
7E0F8000001F07E0
3E0FC000003F07C0
3F07C000003E0FC0
1F07E000007E0F80
1F83E000007C1F80
0F83F00000FC1F00
0FC1F00000F83F00
07C1F80001F83E00
07E0F80001F07E00
03E0FC0003F07C00
03F07C0003E0FC00
01F07E0007E0F800
01F83E0007C1F800
00F83F000FC1F000
00FC1F000F83F000
007E1F801F87E000
007E0FC03F07C000
003F0FC03E0FC000
001F07E07E0F8000
001F83E07C1F8000
000F83F0FC1F0000
000FC1F0F83F0000
0007C1F9F83E0000
0007E0F9F07E0000
0003E0FFF07C0000
0003F07FE0FC0000
0001F07FE0F80000
0001F83FC1F80000
0000F83FC1F00000
0000FC1F83F00000
00007C1F83E00000
00007E1F87E00000
00003E3FC7C00000
00003F3FCFC00000
00001FFFFF800000
00001FFFFF800000
00000FFFFF000000
000007F9FE000000
000007F0FE000000
000003F0FC000000
000003E07C000000
000001E078000000
000001C038000000
000000C030000000
0000008010000000
0000000000000000
ENDCHAR
STARTCHAR C0088-X
ENCODING 88
SWIDTH 656 0
DWIDTH 42 0
BBX 41 47 0 -1
BITMAP
FC0000001F80
7C0000001F80
7E0000003F00
3E0000003E00
3F0000007E00
1F8000007C00
1F800000FC00
0FC00001F800
07C00001F800
07E00003F000
03E00003E000
03F00007E000
01F80007C000
01F8000FC000
00FC001F8000
007C001F8000
007E003F0000
003E003E0000
003F007E0000
001F807C0000
001F80FC0000
000FC1F80000
0007C1F80000
0007E3F00000
0003E3E00000
0003F7E00000
0001F7C00000
0001FFC00000
0000FF800000
0000FF800000
00007F000000
00003E000000
00007F000000
00007F000000
0000FF800000
0000FFC00000
0001FFC00000
0003F7E00000
0003F3E00000
0007E3F00000
0007C1F00000
000FC1F80000
000F80FC0000
001F80FC0000
003F007E0000
003F003E0000
007E003F0000
ENDCHAR
STARTCHAR C0089-Y
ENCODING 89
SWIDTH 609 0
DWIDTH 39 0
BBX 38 47 0 -1
BITMAP
F80000007C
7C000000FC
7C000000F8
3E000001F8
3E000001F0
1F000003E0
1F800003E0
0F800007C0
0FC00007C0
07C0000F80
07E0000F80
03E0001F00
03F0001F00
01F0003E00
01F8007E00
00F8007C00
00FC00FC00
007C00F800
003E01F800
003E01F000
001F03F000
001F03E000
000F87E000
000F87C000
0007CFC000
0007CF8000
0003FF0000
0003FF0000
0001FE0000
0001FE0000
0000FC0000
0000FC0000
00007C0000
00007C0000
00007C0000
00007C0000
00007C0000
00007C0000
00007C0000
00007C0000
00007C0000
00007C0000
00007C0000
00007C0000
00007C0000
00007C0000
00007C0000
ENDCHAR
STARTCHAR C0090-Z
ENCODING 90
SWIDTH 578 0
DWIDTH 37 0
BBX 37 47 0 -1
BITMAP
FFFFFFFFF8
FFFFFFFFF0
FFFFFFFFE0
FFFFFFFFE0
FFFFFFFFC0
0000001F80
0000001F80
0000003F00
0000007E00
0000007E00
000000FC00
000001F800
000001F800
000003F000
000007E000
000007E000
00000FC000
00001F8000
00001F8000
00003F0000
00007E0000
00007E0000
0000FC0000
0001F80000
0001F80000
0003F00000
0007E00000
0007E00000
000FC00000
001F800000
001F800000
003F000000
007E000000
007E000000
00FC000000
01F8000000
01F8000000
03F0000000
07E0000000
07E0000000
0FC0000000
1F80000000
1FFFFFFFF0
3FFFFFFFF0
3FFFFFFFF0
7FFFFFFFF0
FFFFFFFFF0
ENDCHAR
STARTCHAR C0091-[
ENCODING 91
SWIDTH 140 0
DWIDTH 9 0
BBX 8 47 0 -1
BITMAP
F8
FF
FF
FF
FF
F8
F8
F8
F8
F8
F8
F8
F8
F8
F8
F8
F8
F8
F8
F8
F8
F8
F8
F8
F8
F8
F8
F8
F8
F8
F8
F8
F8
F8
F8
F8
F8
F8
F8
F8
F8
F8
FF
FF
FF
FF
FF
ENDCHAR
STARTCHAR C0092-\
ENCODING 92
SWIDTH 468 0
DWIDTH 30 0
BBX 29 47 0 -1
BITMAP
F8000000
7C000000
7C000000
3E000000
3E000000
1F000000
1F000000
0F800000
0FC00000
07C00000
07E00000
03E00000
03F00000
01F00000
01F80000
00F80000
00FC0000
007C0000
007E0000
003E0000
003F0000
001F0000
001F8000
000F8000
0007C000
0007C000
0003E000
0003E000
0001F000
0001F000
0000F800
0000F800
00007C00
00007E00
00003E00
00003F00
00001F00
00001F80
00000F80
00000FC0
000007C0
000007E0
000003E0
000003F0
000001F0
000001F8
000000F8
ENDCHAR
STARTCHAR C0093-]
ENCODING 93
SWIDTH 140 0
DWIDTH 9 0
BBX 8 47 0 -1
BITMAP
1F
FF
FF
FF
FF
1F
1F
1F
1F
1F
1F
1F
1F
1F
1F
1F
1F
1F
1F
1F
1F
1F
1F
1F
1F
1F
1F
1F
1F
1F
1F
1F
1F
1F
1F
1F
1F
1F
1F
1F
1F
1F
FF
FF
FF
FF
FF
ENDCHAR
STARTCHAR C0094-^
ENCODING 94
SWIDTH 265 0
DWIDTH 17 0
BBX 16 16 0 31
BITMAP
0000
0180
0180
03C0
03C0
07E0
07E0
0FF0
0FF0
1FF8
1FF8
3E7C
3E7C
7C3E
7C3E
F81F
ENDCHAR
STARTCHAR C0095-_
ENCODING 95
SWIDTH 437 0
DWIDTH 28 0
BBX 26 5 0 -4
BITMAP
FFFFFFC0
FFFFFFC0
FFFFFFC0
FFFFFFC0
FFFFFFC0
ENDCHAR
STARTCHAR C0096-`
ENCODING 96
SWIDTH 234 0
DWIDTH 15 0
BBX 15 7 -2 47
BITMAP
7E00
3E00
3F00
1F00
1F80
0F80
07C0
07E0
03E0
03F0
01F0
00F8
00FC
007C
ENDCHAR
STARTCHAR C0097-a
ENCODING 97
SWIDTH 781 0
DWIDTH 50 0
BBX 48 47 0 -1
BITMAP
00007FFC0000
0001FFFF8000
000FFFFFE000
001FFFFFF800
007FFFFFFC00
00FFC003FE00
01FE0000FF00
03F800003F80
07F000000FC0
07E0000007E0
0FC0000003F0
1F80000001F0
1F00000001F8
3F00000000FC
3E000000007C
7E000000007C
7C000000003E
7C000000003E
F8000000003E
F8000000003E
F8000000001E
F8000000001F
F8000000001F
F8000000001F
F8000000001F
F8000000001F
F8000000001F
F8000000003F
F8000000003F
7C000000003F
7C000000003F
7E000000007F
3E000000007F
3F00000000FF
1F00000001FF
1F80000001FF
0FC0000003FF
07E0000007FF
07F000000FDF
03F800003F9F
01FE0000FF1F
00FFC003FE1F
007FFFFFFC1F
001FFFFFF81F
000FFFFFE01F
0001FFFF801F
00007FFC001F
ENDCHAR
STARTCHAR C0098-b
ENCODING 98
SWIDTH 593 0
DWIDTH 38 0
BBX 36 47 0 -1
BITMAP
FFFFF80000
FFFFFF8000
FFFFFFC000
FFFFFFF000
FFFFFFF000
F80007F800
F80001F800
F80000FC00
F800007C00
F800007C00
F80000FC00
F80000F800
F80003F800
FFFFFFF800
FFFFFFF000
FFFFFFF000
FFFFFFFC00
FFFFFFFE00
F80001FF00
F800007F80
F800001FC0
F800000FC0
F8000007E0
F8000003E0
F8000003E0
F8000003F0
F8000001F0
F8000001F0
F8000001F0
F8000001F0
F8000001F0
F8000001F0
F8000001F0
F8000001F0
F8000003F0
F8000003E0
F8000007E0
F8000007E0
F800000FC0
F800001F80
F800007F80
F80003FF00
FFFFFFFE00
FFFFFFF800
FFFFFFE000
FFFFFF8000
FFFFFC0000
ENDCHAR
STARTCHAR C0099-c
ENCODING 99
SWIDTH 750 0
DWIDTH 48 0
BBX 47 48 0 -2
BITMAP
00007FFE0000
0003FFFF8000
000FFFFFE000
001FFFFFF800
007FFE7FFC00
00FF8003FF00
01FE00007F80
03F800003FC0
07F000000FC0
0FE0000007E0
0FC0000003F0
1F80000001F8
1F00000001F8
3F00000000FC
3E000000007C
7C000000007C
7C000000003E
7C000000003E
F80000000000
F80000000000
F80000000000
F80000000000
F80000000000
F80000000000
F80000000000
F80000000000
F80000000000
F80000000000
F80000000000
7C000000003E
7C000000003E
7C000000007C
3E000000007C
3F00000000FC
3F00000001F8
1F80000001F8
0FC0000003F0
0FE0000007E0
07F000000FE0
03F800003FC0
01FE00007F80
00FF8003FF00
007FFC3FFE00
001FFFFFF800
000FFFFFF000
0003FFFFC000
00007FFE0000
000000000000
ENDCHAR
STARTCHAR C0100-d
ENCODING 100
SWIDTH 703 0
DWIDTH 45 0
BBX 43 47 0 -1
BITMAP
FFFFC0000000
FFFFFFE00000
FFFFFFFC0000
FFFFFFFF0000
FFFFFFFFC000
F80007FFE000
F800003FF000
F8000007F800
F8000001FC00
F8000000FE00
F80000003F00
F80000003F00
F80000001F80
F80000000F80
F80000000FC0
F800000007C0
F800000007C0
F800000003E0
F800000003E0
F800000003E0
F800000003E0
F800000003E0
F800000003E0
F800000003E0
F800000003E0
F800000003E0
F800000003E0
F800000003E0
F800000003E0
F800000003E0
F800000007C0
F800000007C0
F800000007C0
F80000000F80
F80000001F80
F80000001F80
F80000003F00
F80000007E00
F8000001FE00
F8000003FC00
F800001FF800
F80001FFF000
FFFFFFFFC000
FFFFFFFF8000
FFFFFFFE0000
FFFFFFF00000
FFFFFE000000
ENDCHAR
STARTCHAR C0101-e
ENCODING 101
SWIDTH 765 0
DWIDTH 49 0
BBX 47 47 0 -1
BITMAP
00001FF80000
0001FFFF0000
0007FFFFC000
001FFFFFF000
003FFFFFF800
00FFC007FE00
01FF0001FF00
03FC00007F80
07F000001FC0
07E000000FE0
0FC0000007E0
1F80000003F0
1F00000001F0
3FFFFFFFFFF8
3FFFFFFFFFF8
7FFFFFFFFFFC
7FFFFFFFFFFC
7FFFFFFFFFFC
FC0000000000
F80000000000
F80000000000
F80000000000
F80000000000
F80000000000
F80000000000
F80000000000
F80000000000
F80000000000
FC0000000000
7C000000007C
7C000000007C
7E00000000FC
3E00000000F8
3F00000001F8
1F80000003F0
1F80000003F0
0FC0000007E0
07E000000FC0
07F800003FC0
03FC00007F80
01FF0001FF00
00FFE00FFE00
003FFFFFF800
001FFFFFF000
0007FFFFC000
0001FFFF0000
00003FF80000
ENDCHAR
STARTCHAR C0102-f
ENCODING 102
SWIDTH 593 0
DWIDTH 38 0
BBX 36 47 0 -1
BITMAP
FFFFFFFFF0
FFFFFFFFF0
FFFFFFFFF0
FFFFFFFFF0
FFFFFFFFF0
F800000000
F800000000
F800000000
F800000000
F800000000
F800000000
F800000000
F800000000
F800000000
F800000000
F800000000
F800000000
F800000000
F800000000
F800000000
F800000000
F800000000
F800000000
F800000000
F800000000
F800000000
F800000000
F800000000
F800000000
FFFFFFFFF0
FFFFFFFFF0
FFFFFFFFF0
FFFFFFFFF0
FFFFFFFFF0
F800000000
F800000000
F800000000
F800000000
F800000000
F800000000
F800000000
F800000000
F800000000
F800000000
F800000000
F800000000
F800000000
ENDCHAR
STARTCHAR C0103-g
ENCODING 103
SWIDTH 828 0
DWIDTH 53 0
BBX 51 48 0 -2
BITMAP
00007FFE000000
0003FFFFC00000
000FFFFFF00000
001FFFFFF80000
007FFFFFFE0000
00FFC003FF0000
01FE0000FF8000
03FC00003FC000
07F000000FE000
0FE0000007E000
0FC0000003F000
1F80000001F800
1F00000001F800
3F00000000FC00
3E000000007C00
7E000000007E00
7C000000003E00
7C000000003E00
FC000000003E00
F8000000000000
F8000000000000
F8000000000000
F8000000000000
F8000000000000
F8000000000000
F8000000000000
F8000000000000
F8000000000000
FC000000000000
7C000000000000
7C000000003FE0
7E000000007FE0
3E000000007FE0
3F00000000FFE0
3F00000001FFE0
1F80000001F800
0FC0000003F000
0FE0000007F000
07F000000FE000
03F800003FC000
01FE00007F8000
00FF8003FF0000
007FFC3FFE0000
003FFFFFF80000
000FFFFFF00000
0003FFFFC00000
0000FFFE000000
000007E0000000
ENDCHAR
STARTCHAR C0104-h
ENCODING 104
SWIDTH 640 0
DWIDTH 41 0
BBX 39 47 0 -1
BITMAP
F80000003E
F80000003E
F80000003E
F80000003E
F80000003E
F80000003E
F80000003E
F80000003E
F80000003E
F80000003E
F80000003E
F80000003E
F80000003E
F80000003E
F80000003E
F80000003E
F80000003E
F80000003E
F80000003E
F80000003E
F80000003E
F80000003E
F80000003E
F80000003E
F80000003E
F80000003E
F80000003E
F80000003E
F80000003E
FFFFFFFFFE
FFFFFFFFFE
FFFFFFFFFE
FFFFFFFFFE
FFFFFFFFFE
F80000003E
F80000003E
F80000003E
F80000003E
F80000003E
F80000003E
F80000003E
F80000003E
F80000003E
F80000003E
F80000003E
F80000003E
F80000003E
ENDCHAR
STARTCHAR C0105-i
ENCODING 105
SWIDTH 109 0
DWIDTH 7 0
BBX 5 47 0 -1
BITMAP
F8
F8
F8
F8
F8
F8
F8
F8
F8
F8
F8
F8
F8
F8
F8
F8
F8
F8
F8
F8
F8
F8
F8
F8
F8
F8
F8
F8
F8
F8
F8
F8
F8
F8
F8
F8
F8
F8
F8
F8
F8
F8
F8
F8
F8
F8
F8
ENDCHAR
STARTCHAR C0106-j
ENCODING 106
SWIDTH 406 0
DWIDTH 26 0
BBX 24 47 0 -1
BITMAP
00001F
00001F
00001F
00001F
00001F
00001F
00001F
00001F
00001F
00001F
00001F
00001F
00001F
00001F
00001F
00001F
00001F
00001F
00001F
00001F
00001F
00001F
00001F
00001F
00001F
00001F
00003F
00003E
00003E
00003E
00007E
00007C
0000FC
0000FC
0001F8
0003F8
0007F0
000FE0
001FC0
007FC0
01FF80
1FFE00
FFFC00
FFF800
FFE000
FF0000
F00000
ENDCHAR
STARTCHAR C0107-k
ENCODING 107
SWIDTH 625 0
DWIDTH 40 0
BBX 39 47 0 -1
BITMAP
F80000007E
F8000000FC
F8000001F8
F8000003F0
F8000007E0
F800000FE0
F800001FC0
F800003F80
F800007F00
F80000FE00
F80001FC00
F80003F800
F80007F000
F8000FE000
F8001FC000
F8003F8000
F8007F0000
F8007E0000
F800FC0000
F801F80000
F803F00000
F807E00000
F80FE00000
F81FC00000
F83F800000
F87F000000
F8FE000000
F9FC000000
FBF8000000
FFF0000000
FFE0000000
FFC0000000
FFE0000000
FFF0000000
FFF8000000
F9FC000000
F8FE000000
F87F000000
F83F800000
F81FC00000
F80FE00000
F807F00000
F803F80000
F801FC0000
F800FE0000
F8007F0000
F8003F8000
ENDCHAR
STARTCHAR C0108-l
ENCODING 108
SWIDTH 593 0
DWIDTH 38 0
BBX 36 47 0 -1
BITMAP
F800000000
F800000000
F800000000
F800000000
F800000000
F800000000
F800000000
F800000000
F800000000
F800000000
F800000000
F800000000
F800000000
F800000000
F800000000
F800000000
F800000000
F800000000
F800000000
F800000000
F800000000
F800000000
F800000000
F800000000
F800000000
F800000000
F800000000
F800000000
F800000000
F800000000
F800000000
F800000000
F800000000
F800000000
F800000000
F800000000
F800000000
F800000000
F800000000
F800000000
F800000000
F800000000
FFFFFFFFF0
FFFFFFFFF0
FFFFFFFFF0
FFFFFFFFF0
FFFFFFFFF0
ENDCHAR
STARTCHAR C0109-m
ENCODING 109
SWIDTH 687 0
DWIDTH 44 0
BBX 42 50 0 -2
BITMAP
000000000000
800000000000
800000000040
C00000000040
C000000000C0
E000000001C0
F000000001C0
F000000003C0
F800000003C0
F800000007C0
FC00000007C0
FC0000000FC0
FE0000000FC0
FE0000001FC0
FF0000003FC0
FF8000003FC0
FF8000007FC0
FFC000007FC0
FFC00000FFC0
FFE00000FFC0
FFE00001FFC0
FBF00001FFC0
FBF00003F7C0
F9F80007F7C0
F9FC0007E7C0
F8FC000FC7C0
F8FE000FC7C0
F87E001F87C0
F87F001F87C0
F83F003F07C0
F81F803F07C0
F81F807E07C0
F80FC0FE07C0
F80FE0FC07C0
F807E1F807C0
F807F1F807C0
F803F3F007C0
F803FBF007C0
F801FFE007C0
F801FFE007C0
F800FFC007C0
F8007FC007C0
F8007F8007C0
F8003F0007C0
F8003F0007C0
F8001E0007C0
F8001E0007C0
F8000C0007C0
F8000C0007C0
000000000000
ENDCHAR
STARTCHAR C0110-n
ENCODING 110
SWIDTH 687 0
DWIDTH 44 0
BBX 42 47 0 -1
BITMAP
00001F000000
0001FFF00000
000FFFFC0000
001FFFFF0000
007FFFFF8000
00FFFFFFC000
01FF001FE000
03FC0007F000
07F00003F800
07E00001FC00
0FC00000FE00
1F8000007E00
1F0000003F00
3F0000001F00
3E0000001F80
7E0000000F80
7C0000000F80
7C00000007C0
7C00000007C0
F800000007C0
F800000007C0
F800000003C0
F800000003C0
F800000003C0
F800000003C0
F800000003C0
F800000003C0
F800000003C0
F800000003C0
F800000003C0
F800000003C0
F800000003C0
F800000003C0
F800000003C0
F800000003C0
F800000003C0
F800000003C0
F800000003C0
F800000003C0
F800000003C0
F800000003C0
F800000003C0
F800000003C0
F800000003C0
F800000003C0
F800000003C0
F800000003C0
ENDCHAR
STARTCHAR C0111-o
ENCODING 111
SWIDTH 781 0
DWIDTH 50 0
BBX 48 47 0 -1
BITMAP
00007FFC0000
0001FFFF8000
000FFFFFE000
001FFFFFF800
007FFFFFFC00
00FFC003FE00
01FE0000FF00
03F800003F80
07F000000FC0
07E0000007E0
0FC0000003F0
1F80000001F0
1F00000001F8
3F00000000FC
3E000000007C
7E000000007C
7C000000003E
7C000000003E
F8000000003E
F8000000003E
F8000000001E
F8000000001F
F8000000001F
F8000000001F
F8000000001F
F8000000001F
F8000000001E
F8000000003E
F8000000003E
7C000000003E
7C000000003E
7E000000007C
3E000000007C
3F00000000FC
1F00000001F8
1F80000001F0
0FC0000003F0
07E0000007E0
07F000000FC0
03F800003F80
01FE0000FF00
00FFC003FE00
007FFFFFFC00
001FFFFFF800
000FFFFFE000
0001FFFF8000
00007FFC0000
ENDCHAR
STARTCHAR C0112-p
ENCODING 112
SWIDTH 546 0
DWIDTH 35 0
BBX 33 47 0 -1
BITMAP
FFFF000000
FFFFF80000
FFFFFF0000
FFFFFF8000
FFFFFFE000
F8003FF000
F80007F800
F80001FC00
F80000FC00
F800007E00
F800003E00
F800003F00
F800001F00
F800001F00
F800001F00
F800000F80
F800000F80
F800000F80
F800000F80
F800000F80
F800001F00
F800001F00
F800001F00
F800003F00
F800003E00
F800007E00
F80000FC00
F80003FC00
F8000FF800
F800FFF000
FFFFFFE000
FFFFFF8000
FFFFFE0000
FFFFF80000
F800000000
F800000000
F800000000
F800000000
F800000000
F800000000
F800000000
F800000000
F800000000
F800000000
F800000000
F800000000
F800000000
ENDCHAR
STARTCHAR C0113-q
ENCODING 113
SWIDTH 781 0
DWIDTH 50 0
BBX 47 47 0 -1
BITMAP
00007FFE0000
0003FFFF8000
000FFFFFE000
003FFFFFF800
007FF83FFC00
00FF8003FE00
01FE00007F00
03F800003F80
07F000000FC0
0FE0000007E0
0FC0000003F0
1F80000003F0
3F00000001F8
3E00000000F8
3E00000000FC
7C000000007C
7C000000007C
7C000000003E
F8000000003E
F8000000003E
F8000000003E
F8000000003E
F8000000001E
F8000000001E
F8000000001E
F8000000003E
F8000000003E
F8000000003E
7C000000003E
7C000000003E
7C000000007C
7E000000007C
3E00000000FC
3F00000000F8
1F80000001F8
1F80000003F0
0FC0000007E0
07E000000FE0
03F800001FC0
01FC00007F80
00FF0001FF00
007FE007FE00
003FFFFFFFFE
001FFFFFFFFE
0007FFFFFFFE
0000FFFFFFFE
00001FFFFFFE
ENDCHAR
STARTCHAR C0114-r
ENCODING 114
SWIDTH 546 0
DWIDTH 35 0
BBX 33 47 0 -1
BITMAP
FFFF000000
FFFFF80000
FFFFFF0000
FFFFFF8000
FFFFFFE000
F8003FF000
F80007F800
F80001FC00
F80000FC00
F800007E00
F800003E00
F800003F00
F800001F00
F800001F00
F800001F00
F800000F80
F800000F80
F800000F80
F800000F80
F800000F80
F800001F00
F800001F00
F800001F00
F800003F00
F800003E00
F800007E00
F80000FC00
F80001FC00
F80007F800
F8007FF000
FFFFFFE000
FFFFFF8000
FFFFFE0000
FFFFF80000
F80FE00000
F807F00000
F803F80000
F801FC0000
F800FE0000
F8007F0000
F8003F8000
F8001FC000
F8000FE000
F80007F000
F80003F800
F80001FC00
F80000FE00
ENDCHAR
STARTCHAR C0115-s
ENCODING 115
SWIDTH 562 0
DWIDTH 36 0
BBX 34 48 0 -2
BITMAP
0007F80000
001FFE0000
003FFF0000
007FFF8000
00FF3FC000
00FC0FC000
00F807E000
01F007E000
01F003E000
01F0000000
01F0000000
01F8000000
00F8000000
00FE000000
007FF80000
003FFF0000
001FFFC000
000FFFE000
0003FFF000
000007F800
000001FC00
000000FE00
0000003F00
0000003F00
0000001F80
0000000F80
0000000F80
00000007C0
00000007C0
00000007C0
F8000007C0
F8000007C0
F8000007C0
F8000007C0
F800000F80
7C00000F80
7C00000F80
7E00001F00
3F00003F00
3F80007E00
1FC000FE00
0FE003FC00
07FC1FF800
03FFFFF000
01FFFFE000
007FFF8000
001FFE0000
0000C00000
ENDCHAR
STARTCHAR C0116-t
ENCODING 116
SWIDTH 578 0
DWIDTH 37 0
BBX 35 47 0 -1
BITMAP
FFFFFFFFE0
FFFFFFFFE0
FFFFFFFFE0
FFFFFFFFE0
FFFFFFFFE0
0001F00000
0001F00000
0001F00000
0001F00000
0001F00000
0001F00000
0001F00000
0001F00000
0001F00000
0001F00000
0001F00000
0001F00000
0001F00000
0001F00000
0001F00000
0001F00000
0001F00000
0001F00000
0001F00000
0001F00000
0001F00000
0001F00000
0001F00000
0001F00000
0001F00000
0001F00000
0001F00000
0001F00000
0001F00000
0001F00000
0001F00000
0001F00000
0001F00000
0001F00000
0001F00000
0001F00000
0001F00000
0001F00000
0001F00000
0001F00000
0001F00000
0001F00000
ENDCHAR
STARTCHAR C0117-u
ENCODING 117
SWIDTH 687 0
DWIDTH 44 0
BBX 42 47 0 -1
BITMAP
F800000003C0
F800000003C0
F800000003C0
F800000003C0
F800000003C0
F800000003C0
F800000003C0
F800000003C0
F800000003C0
F800000003C0
F800000003C0
F800000003C0
F800000003C0
F800000003C0
F800000003C0
F800000003C0
F800000003C0
F800000003C0
F800000003C0
F800000003C0
F800000003C0
F800000003C0
F800000003C0
F800000003C0
F800000003C0
F800000003C0
F800000007C0
F800000007C0
7800000007C0
7C00000007C0
7C0000000F80
7E0000000F80
3E0000001F80
3F0000001F00
1F0000003F00
1F8000007E00
0FC000007E00
0FE00000FC00
07F00001F800
03F80007F800
01FE001FF000
00FFC0FFE000
007FFFFF8000
003FFFFF0000
000FFFFE0000
0003FFF00000
00007F800000
ENDCHAR
STARTCHAR C0118-v
ENCODING 118
SWIDTH 781 0
DWIDTH 50 0
BBX 50 48 0 -2
BITMAP
FC000000000FC0
7C000000001F80
7E000000001F80
3E000000003F00
3F000000003F00
1F000000007E00
1F800000007C00
0F80000000FC00
0FC0000000F800
07C0000001F800
07E0000001F000
03F0000003F000
03F0000007E000
01F8000007E000
01F800000FC000
00FC00000FC000
00FC00001F8000
007E00001F8000
007E00003F0000
003F00003F0000
001F00007E0000
001F80007E0000
000F8000FC0000
000FC000FC0000
0007C001F80000
0007E001F00000
0003E003F00000
0003F003E00000
0001F807E00000
0001F807C00000
0000FC0FC00000
0000FC0F800000
00007E1F800000
00007E3F000000
00003F3F000000
00003F7E000000
00001FFE000000
00001FFC000000
00000FFC000000
000007F8000000
000007F8000000
000003F0000000
000003F0000000
000001E0000000
000001C0000000
000000C0000000
00000080000000
00000000000000
ENDCHAR
STARTCHAR C0119-w
ENCODING 119
SWIDTH 953 0
DWIDTH 61 0
BBX 60 48 0 -2
BITMAP
F8000000000001F0
7C000000000001F0
7C000000000003E0
3E000000000003E0
3E000000000007C0
1F000000000007C0
1F00000000000F80
0F80000000000F80
0F80000000001F00
07C0000000001F00
07C0000000003E00
03E0000000003E00
03E0000000007C00
01F000000000FC00
01F000000000F800
00F800000001F000
00F800000001F000
007C00000003E000
003E00000003E000
003E00000007C000
001F00000007C000
001F0000000F8000
000F8000000F8000
000F8000001F0000
0007C000001F0000
0007C000003E0000
0003E000003E0000
0003E000007C0000
0001F002007C0000
0001F00600F80000
0000F80700F80000
0000F80F01F00000
00007C0F83F00000
00007C1F83E00000
00003E1FC7C00000
00003E3FC7C00000
00001F3FEF800000
00001FFFEF800000
00000FFDFF000000
000007F9FF000000
000007F8FE000000
000003F0FE000000
000003F07C000000
000001E07C000000
000001C038000000
000000C038000000
0000008010000000
0000000010000000
ENDCHAR
STARTCHAR C0120-x
ENCODING 120
SWIDTH 656 0
DWIDTH 42 0
BBX 41 47 0 -1
BITMAP
FC0000001F80
7C0000001F80
7E0000003F00
3E0000003E00
3F0000007E00
1F8000007C00
1F800000FC00
0FC00001F800
07C00001F800
07E00003F000
03E00003E000
03F00007E000
01F80007C000
01F8000FC000
00FC001F8000
007C001F8000
007E003F0000
003E003E0000
003F007E0000
001F807C0000
001F80FC0000
000FC1F80000
0007C1F80000
0007E3F00000
0003E3E00000
0003F7E00000
0001F7C00000
0001FFC00000
0000FF800000
0000FF800000
00007F000000
00003E000000
00007F000000
00007F000000
0000FF800000
0000FFC00000
0001FFC00000
0003F7E00000
0003F3E00000
0007E3F00000
0007C1F00000
000FC1F80000
000F80FC0000
001F80FC0000
003F007E0000
003F003E0000
007E003F0000
ENDCHAR
STARTCHAR C0121-y
ENCODING 121
SWIDTH 640 0
DWIDTH 41 0
BBX 39 59 0 -13
BITMAP
F80000003E
F80000003E
F80000003E
F80000003E
F80000003E
F80000003E
F80000003E
F80000003E
F80000003E
F80000003E
F80000003E
F80000003E
F80000003E
F80000003E
F80000003E
F80000003E
F80000003E
F80000003E
F80000003E
F80000003E
F80000003E
F80000003E
F80000003E
F80000003E
F80000003E
F80000003E
F80000003E
F80000003E
F80000003E
7C0000003E
7C0000003E
7C0000007E
7E0000007E
3E0000007E
3F000000FE
1F000001FE
1F800001FE
0FC00003FE
0FE00007FE
07F0001FFE
03FC007FFE
01FF81FFBE
00FFFFFE3E
007FFFFC3E
001FFFF03E
0007FFC03E
00007E003E
7C0000003E
7C0000003E
7C0000007C
7E0000007C
3E000000FC
3F000000F8
1F000001F8
1F800003F0
0FC00007F0
0FE0000FE0
07F0001FC0
03FC007FC0
01FF83FF80
00FFFFFF00
007FFFFC00
001FFFF800
0007FFE000
0000FF0000
ENDCHAR
STARTCHAR C0122-z
ENCODING 122
SWIDTH 578 0
DWIDTH 37 0
BBX 37 47 0 -1
BITMAP
FFFFFFFFF8
FFFFFFFFF0
FFFFFFFFE0
FFFFFFFFE0
FFFFFFFFC0
0000001F80
0000001F80
0000003F00
0000007E00
0000007E00
000000FC00
000001F800
000001F800
000003F000
000007E000
000007E000
00000FC000
00001F8000
00001F8000
00003F0000
00007E0000
00007E0000
0000FC0000
0001F80000
0001F80000
0003F00000
0007E00000
0007E00000
000FC00000
001F800000
001F800000
003F000000
007E000000
007E000000
00FC000000
01F8000000
01F8000000
03F0000000
07E0000000
07E0000000
0FC0000000
1F80000000
1FFFFFFFF0
3FFFFFFFF0
3FFFFFFFF0
7FFFFFFFF0
FFFFFFFFF0
ENDCHAR
STARTCHAR C0123-{
ENCODING 123
SWIDTH 234 0
DWIDTH 15 0
BBX 13 51 0 -3
BITMAP
0038
01F8
03F8
07F8
0FF8
0F80
0F00
0F00
0F00
0F00
0F00
0F00
0F00
0F00
0F00
0F00
0F00
0F00
0F00
0F00
0F00
0F00
1F00
1F00
3F00
FE00
7F00
1F00
1F00
0F00
0F00
0F00
0F00
0F00
0F00
0F00
0F00
0F00
0F00
0F00
0F00
0F00
0F00
0F00
0F00
0F80
0FF0
07F8
03F8
01F8
0038
ENDCHAR
STARTCHAR C0124-|
ENCODING 124
SWIDTH 109 0
DWIDTH 7 0
BBX 5 67 0 -13
BITMAP
F8
F8
F8
F8
F8
F8
F8
F8
F8
F8
F8
F8
F8
F8
F8
F8
F8
F8
F8
F8
F8
F8
F8
F8
F8
F8
F8
F8
F8
F8
F8
F8
F8
F8
F8
F8
F8
F8
F8
F8
F8
F8
F8
F8
F8
F8
F8
F8
F8
F8
F8
F8
F8
F8
F8
F8
F8
F8
F8
F8
F8
F8
F8
F8
F8
F8
F8
F8
ENDCHAR
STARTCHAR C0125-}
ENCODING 125
SWIDTH 234 0
DWIDTH 15 0
BBX 13 51 0 -3
BITMAP
F000
FC00
FF00
FF80
7F80
0FC0
07C0
07C0
07C0
07C0
07C0
07C0
07C0
07C0
07C0
07C0
07C0
07C0
07C0
07C0
07C0
07C0
07C0
07E0
03F0
01F8
03F0
07E0
07C0
07C0
07C0
07C0
07C0
07C0
07C0
07C0
07C0
07C0
07C0
07C0
07C0
07C0
07C0
07C0
07C0
0FC0
7F80
FF80
FF00
FC00
F000
ENDCHAR
STARTCHAR C0126-~
ENCODING 126
SWIDTH 562 0
DWIDTH 36 0
BBX 35 12 0 13
BITMAP
0000000000
03FE000000
0FFF800000
1FFFC00000
3FFFE00000
7E07F007E0
FC03F80FC0
0000FFFF80
00007FFF80
00003FFF00
00001FFC00
000003F000
ENDCHAR
STARTCHAR C0127
ENCODING 127
SWIDTH 500 0
DWIDTH 32 0
BBX 26 45 3 0
BITMAP
FFFFFFC0
FFFFFFC0
C00000C0
C00000C0
C00000C0
C00000C0
C00000C0
C07F00C0
C1FFC0C0
C387E0C0
C303E0C0
C203F0C0
C003F0C0
C003F0C0
C003E0C0
C003E0C0
C007C0C0
C007C0C0
C00F80C0
C00F00C0
C01E00C0
C01E00C0
C03C00C0
C03800C0
C07800C0
C07000C0
C07000C0
C07000C0
C07000C0
C03000C0
C03800C0
C00000C0
C01000C0
C03800C0
C07C00C0
C07E00C0
C07C00C0
C03800C0
C00000C0
C00000C0
C00000C0
C00000C0
C00000C0
FFFFFFC0
FFFFFFC0
ENDCHAR
STARTCHAR C0128
ENCODING 128
SWIDTH 906 0
DWIDTH 58 0
BBX 56 47 0 -1
BITMAP
0000000FFC0000
0000007FFFC000
000003FFFFF000
000007FFFFFC00
00001FFFFFFE00
00003FF807FF00
00007FC000FF80
0000FF00003FC0
0001FC00000FE0
0003F8000007F0
0007F0000003F8
0007E0000001F8
000FC0000000FC
000F800000007C
001F800000007E
001F000000003E
001F000000003F
7FFFFFE000001F
7FFFFFC000001F
7FFFFFC0000000
FFFFFFC0000000
FFFFFF80000000
003E0000000000
003E0000000000
003E0000000000
003E0000000000
7FFFFFC0000000
7FFFFFC0000000
7FFFFFC0000000
FFFFFF8000001F
001F000000003F
001F000000003E
001F800000007E
000F800000007C
000FC0000000FC
0007E0000001F8
0007F0000003F8
0003F8000007F0
0001FC00000FE0
0000FF00001FC0
00007FC0007F80
00003FF803FF00
00001FFFFFFE00
000007FFFFFC00
000003FFFFF000
000000FFFFC000
0000000FFE0000
ENDCHAR
STARTCHAR C0129
ENCODING 129
SWIDTH 500 0
DWIDTH 32 0
BBX 26 45 3 0
BITMAP
FFFFFFC0
FFFFFFC0
C00000C0
C00000C0
C00000C0
C00000C0
C00000C0
C07F00C0
C1FFC0C0
C387E0C0
C303E0C0
C203F0C0
C003F0C0
C003F0C0
C003E0C0
C003E0C0
C007C0C0
C007C0C0
C00F80C0
C00F00C0
C01E00C0
C01E00C0
C03C00C0
C03800C0
C07800C0
C07000C0
C07000C0
C07000C0
C07000C0
C03000C0
C03800C0
C00000C0
C01000C0
C03800C0
C07C00C0
C07E00C0
C07C00C0
C03800C0
C00000C0
C00000C0
C00000C0
C00000C0
C00000C0
FFFFFFC0
FFFFFFC0
ENDCHAR
STARTCHAR C0130
ENCODING 130
SWIDTH 187 0
DWIDTH 12 0
BBX 11 10 0 -4
BITMAP
03E0
07E0
0FC0
0F80
1F80
1F00
3E00
7E00
7C00
FC00
ENDCHAR
STARTCHAR C0131
ENCODING 131
SWIDTH 500 0
DWIDTH 32 0
BBX 26 45 3 0
BITMAP
FFFFFFC0
FFFFFFC0
C00000C0
C00000C0
C00000C0
C00000C0
C00000C0
C07F00C0
C1FFC0C0
C387E0C0
C303E0C0
C203F0C0
C003F0C0
C003F0C0
C003E0C0
C003E0C0
C007C0C0
C007C0C0
C00F80C0
C00F00C0
C01E00C0
C01E00C0
C03C00C0
C03800C0
C07800C0
C07000C0
C07000C0
C07000C0
C07000C0
C03000C0
C03800C0
C00000C0
C01000C0
C03800C0
C07C00C0
C07E00C0
C07C00C0
C03800C0
C00000C0
C00000C0
C00000C0
C00000C0
C00000C0
FFFFFFC0
FFFFFFC0
ENDCHAR
STARTCHAR C0132
ENCODING 132
SWIDTH 218 0
DWIDTH 14 0
BBX 12 16 0 -10
BITMAP
F9F0
F9F0
F9F0
F9F0
F9F0
F9F0
F9F0
F9F0
F9F0
F9F0
F9F0
F9F0
F9F0
F9F0
F9F0
F9F0
ENDCHAR
STARTCHAR C0133
ENCODING 133
SWIDTH 46 0
DWIDTH 3 0
BBX 1 1 0 -1
BITMAP
00
ENDCHAR
STARTCHAR C0134
ENCODING 134
SWIDTH 46 0
DWIDTH 3 0
BBX 1 1 0 -1
BITMAP
00
ENDCHAR
STARTCHAR C0135
ENCODING 135
SWIDTH 46 0
DWIDTH 3 0
BBX 1 1 0 -1
BITMAP
00
ENDCHAR
STARTCHAR C0136
ENCODING 136
SWIDTH 203 0
DWIDTH 13 0
BBX 13 8 0 46
BITMAP
0200
0600
0700
0F80
1F80
1FC0
3FC0
3FE0
7DF0
F9F0
ENDCHAR
STARTCHAR C0137
ENCODING 137
SWIDTH 500 0
DWIDTH 32 0
BBX 26 45 3 0
BITMAP
FFFFFFC0
FFFFFFC0
C00000C0
C00000C0
C00000C0
C00000C0
C00000C0
C07F00C0
C1FFC0C0
C387E0C0
C303E0C0
C203F0C0
C003F0C0
C003F0C0
C003E0C0
C003E0C0
C007C0C0
C007C0C0
C00F80C0
C00F00C0
C01E00C0
C01E00C0
C03C00C0
C03800C0
C07800C0
C07000C0
C07000C0
C07000C0
C07000C0
C03000C0
C03800C0
C00000C0
C01000C0
C03800C0
C07C00C0
C07E00C0
C07C00C0
C03800C0
C00000C0
C00000C0
C00000C0
C00000C0
C00000C0
FFFFFFC0
FFFFFFC0
ENDCHAR
STARTCHAR C0138
ENCODING 138
SWIDTH 500 0
DWIDTH 32 0
BBX 26 45 3 0
BITMAP
FFFFFFC0
FFFFFFC0
C00000C0
C00000C0
C00000C0
C00000C0
C00000C0
C07F00C0
C1FFC0C0
C387E0C0
C303E0C0
C203F0C0
C003F0C0
C003F0C0
C003E0C0
C003E0C0
C007C0C0
C007C0C0
C00F80C0
C00F00C0
C01E00C0
C01E00C0
C03C00C0
C03800C0
C07800C0
C07000C0
C07000C0
C07000C0
C07000C0
C03000C0
C03800C0
C00000C0
C01000C0
C03800C0
C07C00C0
C07E00C0
C07C00C0
C03800C0
C00000C0
C00000C0
C00000C0
C00000C0
C00000C0
FFFFFFC0
FFFFFFC0
ENDCHAR
STARTCHAR C0139
ENCODING 139
SWIDTH 390 0
DWIDTH 25 0
BBX 24 24 0 11
BITMAP
000003
00000F
00003F
0000FF
0003FF
000FFE
003FF8
007FE0
01FF80
07FE00
1FF800
7FE000
7FE000
1FF800
07FE00
01FF80
007FE0
001FF8
0007FE
0001FF
00007F
00003F
00000F
000003
ENDCHAR
STARTCHAR C0140
ENCODING 140
SWIDTH 921 0
DWIDTH 59 0
BBX 57 48 0 -1
BITMAP
000001FFFFFFFF80
00007FFFFFFFFF80
0003FFFFFFFFFF80
000FFFFFFFFFFF80
001FFFFFFFFFFF80
007FFFFFFFFFFF80
00FFC003FF000000
01FF0000FF800000
03FC00003FC00000
07F800001FE00000
0FE0000007E00000
0FC0000003F00000
1F80000003F80000
1F80000001F80000
3F00000000FC0000
3E000000007C0000
7E000000007E0000
7C000000003E0000
7C000000003E0000
FC000000003E0000
FC000000003F0000
F8000000001F0000
F8000000001F0000
F8000000001F0000
F8000000001F0000
F8000000001F0000
F8000000001F0000
F8000000001F0000
FC000000003F0000
FC000000003E0000
7C000000003FFF80
7C000000003FFF80
7E000000007FFF80
3E000000007FFF80
3F00000000FFFF80
1F80000001F80000
1F80000003F80000
0FC0000003F00000
0FE0000007E00000
07F800001FE00000
03FC00003FC00000
01FF0000FF800000
00FFC003FF000000
007FFFFFFFFFFF80
001FFFFFFFFFFF80
000FFFFFFFFFFF80
0003FFFFFFFFFF80
00007FFFFFFFFF80
ENDCHAR
STARTCHAR C0141
ENCODING 141
SWIDTH 500 0
DWIDTH 32 0
BBX 26 45 3 0
BITMAP
FFFFFFC0
FFFFFFC0
C00000C0
C00000C0
C00000C0
C00000C0
C00000C0
C07F00C0
C1FFC0C0
C387E0C0
C303E0C0
C203F0C0
C003F0C0
C003F0C0
C003E0C0
C003E0C0
C007C0C0
C007C0C0
C00F80C0
C00F00C0
C01E00C0
C01E00C0
C03C00C0
C03800C0
C07800C0
C07000C0
C07000C0
C07000C0
C07000C0
C03000C0
C03800C0
C00000C0
C01000C0
C03800C0
C07C00C0
C07E00C0
C07C00C0
C03800C0
C00000C0
C00000C0
C00000C0
C00000C0
C00000C0
FFFFFFC0
FFFFFFC0
ENDCHAR
STARTCHAR C0142
ENCODING 142
SWIDTH 500 0
DWIDTH 32 0
BBX 26 45 3 0
BITMAP
FFFFFFC0
FFFFFFC0
C00000C0
C00000C0
C00000C0
C00000C0
C00000C0
C07F00C0
C1FFC0C0
C387E0C0
C303E0C0
C203F0C0
C003F0C0
C003F0C0
C003E0C0
C003E0C0
C007C0C0
C007C0C0
C00F80C0
C00F00C0
C01E00C0
C01E00C0
C03C00C0
C03800C0
C07800C0
C07000C0
C07000C0
C07000C0
C07000C0
C03000C0
C03800C0
C00000C0
C01000C0
C03800C0
C07C00C0
C07E00C0
C07C00C0
C03800C0
C00000C0
C00000C0
C00000C0
C00000C0
C00000C0
FFFFFFC0
FFFFFFC0
ENDCHAR
STARTCHAR C0143
ENCODING 143
SWIDTH 500 0
DWIDTH 32 0
BBX 26 45 3 0
BITMAP
FFFFFFC0
FFFFFFC0
C00000C0
C00000C0
C00000C0
C00000C0
C00000C0
C07F00C0
C1FFC0C0
C387E0C0
C303E0C0
C203F0C0
C003F0C0
C003F0C0
C003E0C0
C003E0C0
C007C0C0
C007C0C0
C00F80C0
C00F00C0
C01E00C0
C01E00C0
C03C00C0
C03800C0
C07800C0
C07000C0
C07000C0
C07000C0
C07000C0
C03000C0
C03800C0
C00000C0
C01000C0
C03800C0
C07C00C0
C07E00C0
C07C00C0
C03800C0
C00000C0
C00000C0
C00000C0
C00000C0
C00000C0
FFFFFFC0
FFFFFFC0
ENDCHAR
STARTCHAR C0144
ENCODING 144
SWIDTH 500 0
DWIDTH 32 0
BBX 26 45 3 0
BITMAP
FFFFFFC0
FFFFFFC0
C00000C0
C00000C0
C00000C0
C00000C0
C00000C0
C07F00C0
C1FFC0C0
C387E0C0
C303E0C0
C203F0C0
C003F0C0
C003F0C0
C003E0C0
C003E0C0
C007C0C0
C007C0C0
C00F80C0
C00F00C0
C01E00C0
C01E00C0
C03C00C0
C03800C0
C07800C0
C07000C0
C07000C0
C07000C0
C07000C0
C03000C0
C03800C0
C00000C0
C01000C0
C03800C0
C07C00C0
C07E00C0
C07C00C0
C03800C0
C00000C0
C00000C0
C00000C0
C00000C0
C00000C0
FFFFFFC0
FFFFFFC0
ENDCHAR
STARTCHAR C0145
ENCODING 145
SWIDTH 187 0
DWIDTH 12 0
BBX 11 10 0 36
BITMAP
FC00
7C00
7E00
3E00
1F00
1F80
0F80
0FC0
07C0
03E0
ENDCHAR
STARTCHAR C0146
ENCODING 146
SWIDTH 187 0
DWIDTH 12 0
BBX 11 10 0 36
BITMAP
03E0
07E0
0FC0
0F80
1F80
1F00
3E00
7E00
7C00
FC00
ENDCHAR
STARTCHAR C0147
ENCODING 147
SWIDTH 218 0
DWIDTH 14 0
BBX 12 16 0 30
BITMAP
F9F0
F9F0
F9F0
F9F0
F9F0
F9F0
F9F0
F9F0
F9F0
F9F0
F9F0
F9F0
F9F0
F9F0
F9F0
F9F0
ENDCHAR
STARTCHAR C0148
ENCODING 148
SWIDTH 218 0
DWIDTH 14 0
BBX 12 16 0 30
BITMAP
F9F0
F9F0
F9F0
F9F0
F9F0
F9F0
F9F0
F9F0
F9F0
F9F0
F9F0
F9F0
F9F0
F9F0
F9F0
F9F0
ENDCHAR
STARTCHAR C0149
ENCODING 149
SWIDTH 203 0
DWIDTH 13 0
BBX 11 11 0 18
BITMAP
1F00
3F80
7FC0
FFE0
FFE0
FFE0
FFE0
FFC0
7FC0
3F80
0E00
ENDCHAR
STARTCHAR C0150
ENCODING 150
SWIDTH 46 0
DWIDTH 3 0
BBX 1 1 0 -1
BITMAP
00
ENDCHAR
STARTCHAR C0151
ENCODING 151
SWIDTH 46 0
DWIDTH 3 0
BBX 1 1 0 -1
BITMAP
00
ENDCHAR
STARTCHAR C0152
ENCODING 152
SWIDTH 375 0
DWIDTH 24 0
BBX 23 9 0 45
BITMAP
010000
0FE000
1FF000
3FF83E
7FFFFC
FC7FF8
003FF8
000FE0
000380
ENDCHAR
STARTCHAR C0153
ENCODING 153
SWIDTH 656 0
DWIDTH 42 0
BBX 40 28 0 20
BITMAP
0000000001
0000100001
FFFFD00003
FFFFD80003
FFFFD80007
FFFFDC000F
FFFFDC000F
01E01E001F
01E01E001F
01E01F003F
01E01F003F
01E01F807F
01E01FC07F
01E01FC0FF
01E01FE0FF
01E01FE1FF
01E01FF1FF
01E01FF3FF
01E01EFBDF
01E01E7FDF
01E01E7F9F
01E01E3F9F
01E01E3F1F
01E01E1F1F
01E01E1E1F
01E01E0E1F
01E01E0C1F
0000000400
ENDCHAR
STARTCHAR C0154
ENCODING 154
SWIDTH 500 0
DWIDTH 32 0
BBX 26 45 3 0
BITMAP
FFFFFFC0
FFFFFFC0
C00000C0
C00000C0
C00000C0
C00000C0
C00000C0
C07F00C0
C1FFC0C0
C387E0C0
C303E0C0
C203F0C0
C003F0C0
C003F0C0
C003E0C0
C003E0C0
C007C0C0
C007C0C0
C00F80C0
C00F00C0
C01E00C0
C01E00C0
C03C00C0
C03800C0
C07800C0
C07000C0
C07000C0
C07000C0
C07000C0
C03000C0
C03800C0
C00000C0
C01000C0
C03800C0
C07C00C0
C07E00C0
C07C00C0
C03800C0
C00000C0
C00000C0
C00000C0
C00000C0
C00000C0
FFFFFFC0
FFFFFFC0
ENDCHAR
STARTCHAR C0155
ENCODING 155
SWIDTH 390 0
DWIDTH 25 0
BBX 24 24 0 11
BITMAP
C00000
F00000
FC0000
FF0000
FF8000
7FE000
1FF800
07FE00
01FF80
007FE0
001FF8
0007FE
000FFE
003FF8
00FFE0
01FF80
07FE00
1FF800
7FE000
FF8000
FE0000
F80000
E00000
800000
ENDCHAR
STARTCHAR C0156
ENCODING 156
SWIDTH 1437 0
DWIDTH 92 0
BBX 90 47 0 -1
BITMAP
00007FFE0000000FFF800000
0003FFFFC000007FFFF00000
000FFFFFF00001FFFFFC0000
001FFFFFF80003FFFFFE0000
007FFFFFFE000FFFFFFF8000
00FFC003FF001FF800FFC000
01FF0000FF803FE0003FE000
03FC00003FC07F80000FF000
07F800001FE0FE000003F800
0FE0000007F1FC000001FC00
0FC0000003F3F8000000FC00
1F80000003FBF00000007E00
1F80000001FFE00000003F00
3F00000000FFE00000003F00
3E000000007FFFFFFFFFFF80
7E000000007FFFFFFFFFFF80
7C000000003FFFFFFFFFFF80
7C000000003FFFFFFFFFFFC0
FC000000003FFFFFFFFFFFC0
FC000000003F000000000000
F8000000001F000000000000
F8000000001F000000000000
F8000000001F000000000000
F8000000001F000000000000
F8000000001F000000000000
F8000000001F000000000000
F8000000001F000000000000
FC000000003F000000000000
FC000000003F800000000000
7C000000003F800000000FC0
7C000000003F800000000F80
7E000000007FC00000001F80
3E000000007FC00000001F00
3F00000000FFE00000003F00
1F80000001FFE00000003F00
1F80000003FBF00000007E00
0FC0000003F3F8000000FC00
0FE0000007F1FC000001FC00
07F800001FE0FE000003F800
03FC00003FC07F80000FF000
01FF0000FF803FE0003FE000
00FFC003FF001FFC01FFC000
007FFFFFFE000FFFFFFF8000
001FFFFFF80003FFFFFE0000
000FFFFFF00001FFFFFC0000
0003FFFFC000007FFFF00000
00007FFE00000007FF800000
ENDCHAR
STARTCHAR C0157
ENCODING 157
SWIDTH 500 0
DWIDTH 32 0
BBX 26 45 3 0
BITMAP
FFFFFFC0
FFFFFFC0
C00000C0
C00000C0
C00000C0
C00000C0
C00000C0
C07F00C0
C1FFC0C0
C387E0C0
C303E0C0
C203F0C0
C003F0C0
C003F0C0
C003E0C0
C003E0C0
C007C0C0
C007C0C0
C00F80C0
C00F00C0
C01E00C0
C01E00C0
C03C00C0
C03800C0
C07800C0
C07000C0
C07000C0
C07000C0
C07000C0
C03000C0
C03800C0
C00000C0
C01000C0
C03800C0
C07C00C0
C07E00C0
C07C00C0
C03800C0
C00000C0
C00000C0
C00000C0
C00000C0
C00000C0
FFFFFFC0
FFFFFFC0
ENDCHAR
STARTCHAR C0158
ENCODING 158
SWIDTH 500 0
DWIDTH 32 0
BBX 26 45 3 0
BITMAP
FFFFFFC0
FFFFFFC0
C00000C0
C00000C0
C00000C0
C00000C0
C00000C0
C07F00C0
C1FFC0C0
C387E0C0
C303E0C0
C203F0C0
C003F0C0
C003F0C0
C003E0C0
C003E0C0
C007C0C0
C007C0C0
C00F80C0
C00F00C0
C01E00C0
C01E00C0
C03C00C0
C03800C0
C07800C0
C07000C0
C07000C0
C07000C0
C07000C0
C03000C0
C03800C0
C00000C0
C01000C0
C03800C0
C07C00C0
C07E00C0
C07C00C0
C03800C0
C00000C0
C00000C0
C00000C0
C00000C0
C00000C0
FFFFFFC0
FFFFFFC0
ENDCHAR
STARTCHAR C0159
ENCODING 159
SWIDTH 500 0
DWIDTH 32 0
BBX 26 45 3 0
BITMAP
FFFFFFC0
FFFFFFC0
C00000C0
C00000C0
C00000C0
C00000C0
C00000C0
C07F00C0
C1FFC0C0
C387E0C0
C303E0C0
C203F0C0
C003F0C0
C003F0C0
C003E0C0
C003E0C0
C007C0C0
C007C0C0
C00F80C0
C00F00C0
C01E00C0
C01E00C0
C03C00C0
C03800C0
C07800C0
C07000C0
C07000C0
C07000C0
C07000C0
C03000C0
C03800C0
C00000C0
C01000C0
C03800C0
C07C00C0
C07E00C0
C07C00C0
C03800C0
C00000C0
C00000C0
C00000C0
C00000C0
C00000C0
FFFFFFC0
FFFFFFC0
ENDCHAR
STARTCHAR C0160
ENCODING 160
SWIDTH 250 0
DWIDTH 16 0
BBX 1 1 0 -1
BITMAP
00
ENDCHAR
STARTCHAR C0161
ENCODING 161
SWIDTH 140 0
DWIDTH 9 0
BBX 7 47 0 -1
BITMAP
7C
7E
FE
FE
FE
7E
38
00
00
7C
7C
7C
7C
7C
7C
7C
7C
7C
7C
7C
7C
7C
7C
7C
7C
7C
7C
7C
7C
7C
7C
7C
7C
7C
7C
7C
7C
7C
7C
7C
7C
7C
7C
7C
7C
7C
7C
ENDCHAR
STARTCHAR C0162
ENCODING 162
SWIDTH 515 0
DWIDTH 33 0
BBX 31 47 0 -1
BITMAP
0000007C
000000F8
000000F8
000001F0
000001F0
000003E0
000007C0
000007C0
00000F80
000FFF80
007FFF00
01FFFF00
03FFFF80
07FFFFE0
0FE07FE0
1F807FF0
3F00F9F8
3E00F8F8
7C01F07C
7C01F07C
7803E03E
F803E03E
F807C000
F807C000
F80F8000
F80F8000
F81F0000
F81F003E
F83E003E
7C7E003C
7C7C007C
3EF800FC
3FF801F8
1FF003F0
1FF007F0
0FF83FE0
07FFFFC0
07FFFF80
07FFFE00
0FBFF800
0F800000
1F000000
1F000000
3E000000
3E000000
7C000000
7C000000
ENDCHAR
STARTCHAR C0163
ENCODING 163
SWIDTH 562 0
DWIDTH 36 0
BBX 34 47 0 -1
BITMAP
0003FC0000
000FFF8000
003FFFE000
007FFFF000
00FFFFF800
01FE07FC00
03F800FE00
07F0007E00
07E0003F00
0FC0001F00
0F80001F80
0F80000F80
1F00000F80
1F00000F80
1F00001F80
3E00001F00
3E00003F00
3E00007F00
1F0000FE00
1F00000000
1F00000000
1F80000000
FFFF000000
FFFF000000
FFFF000000
FFFF000000
03F0000000
01F0000000
00F8000000
00F8000000
00F8000000
01F8000000
01F0000000
03F0000000
03E0000000
07E0000000
07C0000000
0FC0000000
0F80000000
1F80000000
1F00000000
1F00000000
3FFFFFFE00
3FFFFFFE00
3FFFFFFE00
3FFFFFFE00
7FFFFFFE00
ENDCHAR
STARTCHAR C0164
ENCODING 164
SWIDTH 359 0
DWIDTH 23 0
BBX 22 22 0 13
BITMAP
100020
380070
7DFCF8
FFFFFC
7FFFF8
3FFFF0
1FFFE0
3F07E0
3E03E0
3E01F0
3E01F0
3E01F0
3E03F0
3F03E0
3F8FE0
1FFFE0
3FFFF0
7FFFF8
FFFFF8
7CF8F0
380060
100000
ENDCHAR
STARTCHAR C0165
ENCODING 165
SWIDTH 609 0
DWIDTH 39 0
BBX 38 47 0 -1
BITMAP
F80000007C
7C000000FC
7C000000F8
3E000001F8
3E000001F0
1F000003E0
1F800003E0
0F800007C0
0FC00007C0
07C0000F80
07E0000F80
03E0001F00
03F0001F00
01F0003E00
01F8007E00
00F8007C00
00FC00FC00
007C00F800
003E01F800
003E01F000
001F03F000
001F03E000
000F87E000
000F87C000
0007CFC000
0007CF8000
0003FF0000
0003FF0000
007FFFF800
007FFFF800
007FFFF800
007FFFF800
007FFFF800
00007C0000
00007C0000
007FFFF800
007FFFF800
007FFFF800
007FFFF800
007FFFF800
00007C0000
00007C0000
00007C0000
00007C0000
00007C0000
00007C0000
00007C0000
ENDCHAR
STARTCHAR C0166
ENCODING 166
SWIDTH 46 0
DWIDTH 3 0
BBX 1 1 0 -1
BITMAP
00
ENDCHAR
STARTCHAR C0167
ENCODING 167
SWIDTH 453 0
DWIDTH 29 0
BBX 27 48 0 -2
BITMAP
003F8000
00FFE000
01FFF000
01FFF000
03E0F000
03C0F800
03C07800
03C07800
03C00000
03C00000
03F00000
01FFC000
00FFF000
01FFF800
01FFFE00
03E0FF00
03C03F00
03C00F80
03C00FC0
03C007C0
03C003C0
03E003C0
01FF83C0
00FFE3C0
007FFBC0
001FFFC0
00007FC0
00003FC0
00000FC0
00000F80
000007C0
000003C0
000003C0
000003C0
F00003C0
F00003C0
F00003C0
F00003C0
780003C0
780007C0
7C000F80
3E001F80
3F003F00
1FC0FE00
0FFFFC00
07FFF800
01FFE000
003F8000
ENDCHAR
STARTCHAR C0168
ENCODING 168
SWIDTH 265 0
DWIDTH 17 0
BBX 15 7 0 46
BITMAP
3838
7C7C
FEFE
FEFE
FEFE
FEFE
7C7C
ENDCHAR
STARTCHAR C0169
ENCODING 169
SWIDTH 750 0
DWIDTH 48 0
BBX 47 47 0 -1
BITMAP
00000FC00000
0000FFFE0000
0007FFFF8000
001FFFFFE000
003FFFFFF800
007FE00FFC00
01FF0001FE00
03FC00007F00
03F80FE03F80
07E07FFC1FC0
0FC1FFFF07E0
1F83FFFF87E0
1F87FFFFC3F0
3F0FE00FE1F0
3E1FC003F0F8
7E1F0001F8F8
7C3E0000F87C
7C3E0000F87C
7C7C00007C7C
F87C00007C3C
F87800003E3C
F8780000003E
F8780000003E
F8780000003E
F8780000003E
F8780000003E
F87C00007C3C
F87C00007C3C
FC7E00007C7C
7C3E0000F87C
7C3F0001F87C
7E1F8003F0F8
3E0FE00FE0F8
3F07FC7FE1F0
1F83FFFF83F0
1FC1FFFF07E0
0FC07FFE07E0
07F01FF01FC0
07F800003F80
03FC00007F00
01FF0001FE00
00FFE00FFC00
003FFFFFF800
001FFFFFF000
0007FFFFC000
0001FFFE0000
00001FF00000
ENDCHAR
STARTCHAR C0170
ENCODING 170
SWIDTH 46 0
DWIDTH 3 0
BBX 1 1 0 -1
BITMAP
00
ENDCHAR
STARTCHAR C0171
ENCODING 171
SWIDTH 578 0
DWIDTH 37 0
BBX 36 24 0 11
BITMAP
0000030030
00000F00F0
00003F03F0
0000FF0FF0
0003FF3FF0
000FFEFFE0
003FFBFF80
007FEFFE00
01FFBFF800
07FE7FE000
1FF9FF8000
7FE7FE0000
7FE7FE0000
1FF9FF8000
07FE7FE000
01FF9FF800
007FE7FE00
001FF9FF80
0007FE7FE0
0001FF3FF0
00007F0FF0
00003F03F0
00000F00F0
0000030030
ENDCHAR
STARTCHAR C0172
ENCODING 172
SWIDTH 46 0
DWIDTH 3 0
BBX 1 1 0 -1
BITMAP
00
ENDCHAR
STARTCHAR C0173
ENCODING 173
SWIDTH 437 0
DWIDTH 28 0
BBX 26 4 0 17
BITMAP
FFFFFFC0
FFFFFFC0
FFFFFFC0
FFFFFFC0
ENDCHAR
STARTCHAR C0174
ENCODING 174
SWIDTH 750 0
DWIDTH 48 0
BBX 47 46 0 -1
BITMAP
00007FFC0000
0003FFFF8000
000FFFFFE000
003FFFFFF000
007FF83FFC00
00FF8003FE00
01FE0000FF00
03F800003F80
07F3FFC01FC0
0FE3FFF80FC0
0FC3FFFE07E0
1F83FFFF03F0
3F03FFFF81F0
3F03E01FC1F8
3E03E007C0F8
7E03E003C0F8
7C03E003E07C
7C03E003E07C
FC03E003E07C
F803E003E03C
F803E003E03C
F803E003E03E
F803E003C03E
F803E007C03E
F803E01FC03E
F803FFFF803C
F803FFFF003C
FC03FFFE007C
7C03FFF8007C
7C03FFF0007C
7E03E1F800F8
3E03E0FC00F8
3F03E07E01F8
3F03E03F01F0
1F83E01F83F0
0FC3E00FC7E0
0FE3E007EFC0
07F000001F80
03FC00007F80
01FF0001FF00
00FFC007FE00
007FFFFFF800
001FFFFFF000
000FFFFFC000
0003FFFF0000
00007FF80000
ENDCHAR
STARTCHAR C0175
ENCODING 175
SWIDTH 515 0
DWIDTH 33 0
BBX 31 5 0 41
BITMAP
FFFFFFFE
FFFFFFFE
FFFFFFFE
FFFFFFFE
FFFFFFFE
ENDCHAR
STARTCHAR C0176
ENCODING 176
SWIDTH 218 0
DWIDTH 14 0
BBX 12 12 0 34
BITMAP
0F00
3FC0
7FE0
7FE0
FFF0
F9F0
F9F0
FFF0
FFF0
7FE0
3FC0
1F80
ENDCHAR
STARTCHAR C0177
ENCODING 177
SWIDTH 46 0
DWIDTH 3 0
BBX 1 1 0 -1
BITMAP
00
ENDCHAR
STARTCHAR C0178
ENCODING 178
SWIDTH 46 0
DWIDTH 3 0
BBX 1 1 0 -1
BITMAP
00
ENDCHAR
STARTCHAR C0179
ENCODING 179
SWIDTH 46 0
DWIDTH 3 0
BBX 1 1 0 -1
BITMAP
00
ENDCHAR
STARTCHAR C0180
ENCODING 180
SWIDTH 234 0
DWIDTH 15 0
BBX 14 7 0 47
BITMAP
00FC
01F8
01F0
03F0
03E0
07E0
07C0
0F80
1F80
1F00
3F00
3E00
7C00
FC00
ENDCHAR
STARTCHAR C0181
ENCODING 181
SWIDTH 687 0
DWIDTH 44 0
BBX 42 53 0 -7
BITMAP
F800000003C0
F800000003C0
F800000003C0
F800000003C0
F800000003C0
F800000003C0
F800000003C0
F800000003C0
F800000003C0
F800000003C0
F800000003C0
F800000003C0
F800000003C0
F800000003C0
F800000003C0
F800000003C0
F800000003C0
F800000003C0
F800000003C0
F800000003C0
F800000003C0
F800000003C0
F800000003C0
F800000003C0
F800000003C0
F800000003C0
F800000007C0
F800000007C0
F800000007C0
FC0000000780
FC0000000F80
FC0000000F80
FE0000001F80
FE0000001F00
FF0000003F00
FF8000007E00
FFC000007E00
FFE00000FC00
FFF00001F800
FBF80007F000
F9FE001FE000
F8FFC0FFC000
F87FFFFF8000
F83FFFFF0000
F80FFFFC0000
F803FFF00000
F8003F800000
F80000000000
F80000000000
F80000000000
F80000000000
F80000000000
F80000000000
ENDCHAR
STARTCHAR C0182
ENCODING 182
SWIDTH 359 0
DWIDTH 23 0
BBX 21 34 0 12
BITMAP
003FF8
03FFF8
0FFFF8
1FFFF8
3FFFF8
7FF3E0
7FF3E0
FFF3E0
FFF3E0
FFF3E0
FFF3E0
FFF3E0
7FF3E0
7FF3E0
3FF3E0
1FF3E0
0FF3E0
03F3E0
00F3E0
00F3E0
00F3E0
00F3E0
00F3E0
00F3E0
00F3E0
00F3E0
00F3E0
00F3E0
00F3E0
00F3E0
00F3E0
00F3E0
00F3E0
00F3E0
ENDCHAR
STARTCHAR C0183
ENCODING 183
SWIDTH 140 0
DWIDTH 9 0
BBX 7 7 0 18
BITMAP
7C
FE
FE
FE
FE
7C
38
ENDCHAR
STARTCHAR C0184
ENCODING 184
SWIDTH 203 0
DWIDTH 13 0
BBX 11 14 0 -13
BITMAP
F800
F800
FC00
FF00
FF80
FFC0
FFC0
0FE0
07E0
1FE0
FFC0
FFC0
FF80
FE00
F800
ENDCHAR
STARTCHAR C0185
ENCODING 185
SWIDTH 46 0
DWIDTH 3 0
BBX 1 1 0 -1
BITMAP
00
ENDCHAR
STARTCHAR C0186
ENCODING 186
SWIDTH 46 0
DWIDTH 3 0
BBX 1 1 0 -1
BITMAP
00
ENDCHAR
STARTCHAR C0187
ENCODING 187
SWIDTH 578 0
DWIDTH 37 0
BBX 36 24 0 11
BITMAP
C00C000000
F00F000000
FC0F800000
FF0FE00000
FF8FF80000
7FE7FE0000
1FF9FF8000
07FE7FE000
01FF9FF800
007FE7FE00
001FF9FF80
0007FE7FE0
000FFEFFE0
003FFBFF80
00FFEFFE00
01FFBFF800
07FEFFE000
1FF9FF8000
7FE7FE0000
FF8FF80000
FE0FE00000
F80F800000
E00E000000
8008000000
ENDCHAR
STARTCHAR C0188
ENCODING 188
SWIDTH 46 0
DWIDTH 3 0
BBX 1 1 0 -1
BITMAP
00
ENDCHAR
STARTCHAR C0189
ENCODING 189
SWIDTH 46 0
DWIDTH 3 0
BBX 1 1 0 -1
BITMAP
00
ENDCHAR
STARTCHAR C0190
ENCODING 190
SWIDTH 46 0
DWIDTH 3 0
BBX 1 1 0 -1
BITMAP
00
ENDCHAR
STARTCHAR C0191
ENCODING 191
SWIDTH 625 0
DWIDTH 40 0
BBX 38 49 0 -1
BITMAP
0000780000
0000FC0000
0000FE0000
0001FE0000
0000FE0000
0000FC0000
0000780000
0000000000
0000000000
0000000000
0000F80000
0000F80000
0000F80000
0007F80000
003FF80000
007FF80000
01FFF80000
03FFF80000
07FC000000
0FF0000000
1FC0000000
1F80000000
3F00000000
3E00000000
7E00000000
7C00000000
7C00000000
F800000000
F800000000
F800000000
F80000007C
F80000007C
F80000007C
F80000007C
FC0000007C
7C000000FC
7C000000F8
7E000000F8
3E000001F8
3F000003F0
1F800007F0
1FC0000FE0
0FF0003FC0
07FC00FF80
03FFFFFF00
01FFFFFE00
007FFFF800
001FFFF000
0007FF8000
ENDCHAR
STARTCHAR C0192
ENCODING 192
SWIDTH 781 0
DWIDTH 50 0
BBX 50 55 0 -1
BITMAP
0001F000000000
0001F800000000
0000FC00000000
00007C00000000
00007E00000000
00003E00000000
00001F00000000
00001F80000000
00000F80000000
00000FC0000000
000001C0000000
000001E0000000
000003E0000000
000003F0000000
000007F0000000
000007F8000000
00000FFC000000
00000FFC000000
00001F3E000000
00001F3E000000
00003E1F000000
00007E1F000000
00007C0F800000
0000F80F800000
0000F807C00000
0001F007C00000
0001F003E00000
0003E003E00000
0003E001F00000
0007C001F00000
0007C000F80000
000F8000F80000
000F80007C0000
001F00007C0000
001F00003E0000
003E00003E0000
003E00001F0000
007FFFFFFF8000
007FFFFFFF8000
00FFFFFFFFC000
00FFFFFFFFC000
01FFFFFFFFE000
03E0000003E000
03E0000001F000
07C0000001F000
07C0000000F800
0F80000000F800
0F800000007C00
1F000000007C00
1F000000003E00
3E000000003E00
3E000000001F00
7C000000001F00
7C000000000F80
F8000000000F80
ENDCHAR
STARTCHAR C0193
ENCODING 193
SWIDTH 781 0
DWIDTH 50 0
BBX 50 55 0 -1
BITMAP
00000007E00000
0000000FC00000
0000000F800000
0000001F800000
0000001F000000
0000003E000000
0000007E000000
0000007C000000
000000F8000000
000001F8000000
000001C0000000
000001E0000000
000003E0000000
000003F0000000
000007F0000000
000007F8000000
00000FFC000000
00000FFC000000
00001F3E000000
00001F3E000000
00003E1F000000
00007E1F000000
00007C0F800000
0000F80F800000
0000F807C00000
0001F007C00000
0001F003E00000
0003E003E00000
0003E001F00000
0007C001F00000
0007C000F80000
000F8000F80000
000F80007C0000
001F00007C0000
001F00003E0000
003E00003E0000
003E00001F0000
007FFFFFFF8000
007FFFFFFF8000
00FFFFFFFFC000
00FFFFFFFFC000
01FFFFFFFFE000
03E0000003E000
03E0000001F000
07C0000001F000
07C0000000F800
0F80000000F800
0F800000007C00
1F000000007C00
1F000000003E00
3E000000003E00
3E000000001F00
7C000000001F00
7C000000000F80
F8000000000F80
ENDCHAR
STARTCHAR C0194
ENCODING 194
SWIDTH 781 0
DWIDTH 50 0
BBX 50 55 0 -1
BITMAP
00000000000000
000000C0000000
000001C0000000
000001E0000000
000003F0000000
000007F0000000
000007F8000000
00000FF8000000
00000FFC000000
00001FBE000000
000000C0000000
000001C0000000
000001E0000000
000003E0000000
000003F0000000
000007F0000000
000007F8000000
00000FFC000000
00000FFC000000
00001F3E000000
00001F3E000000
00003E1F000000
00007E1F000000
00007C0F800000
0000F80F800000
0000F807C00000
0001F007C00000
0001F003E00000
0003E003E00000
0003E001F00000
0007C001F00000
0007C000F80000
000F8000F80000
000F80007C0000
001F00007C0000
001F00003E0000
003E00003E0000
003E00001F0000
007FFFFFFF8000
007FFFFFFF8000
00FFFFFFFFC000
00FFFFFFFFC000
01FFFFFFFFE000
03E0000003E000
03E0000001F000
07C0000001F000
07C0000000F800
0F80000000F800
0F800000007C00
1F000000007C00
1F000000003E00
3E000000003E00
3E000000001F00
7C000000001F00
7C000000000F80
F8000000000F80
ENDCHAR
STARTCHAR C0195
ENCODING 195
SWIDTH 781 0
DWIDTH 50 0
BBX 50 55 0 -1
BITMAP
00000800000000
00007F00000000
0000FFC0000000
0001FFE1F00000
0003FFFFE00000
0003E1FFE00000
000000FFC00000
0000007F800000
0000009E000000
000000C0000000
000001C0000000
000001E0000000
000003E0000000
000003F0000000
000007F0000000
000007F8000000
00000FFC000000
00000FFC000000
00001F3E000000
00001F3E000000
00003E1F000000
00007E1F000000
00007C0F800000
0000F80F800000
0000F807C00000
0001F007C00000
0001F003E00000
0003E003E00000
0003E001F00000
0007C001F00000
0007C000F80000
000F8000F80000
000F80007C0000
001F00007C0000
001F00003E0000
003E00003E0000
003E00001F0000
007FFFFFFF8000
007FFFFFFF8000
00FFFFFFFFC000
00FFFFFFFFC000
01FFFFFFFFE000
03E0000003E000
03E0000001F000
07C0000001F000
07C0000000F800
0F80000000F800
0F800000007C00
1F000000007C00
1F000000003E00
3E000000003E00
3E000000001F00
7C000000001F00
7C000000000F80
F8000000000F80
ENDCHAR
STARTCHAR C0196
ENCODING 196
SWIDTH 781 0
DWIDTH 50 0
BBX 50 54 0 -1
BITMAP
00000C0C000000
00003F3F000000
00003F3F000000
00007FFF800000
00007F7F800000
00003F3F000000
00001E1E000000
00000080000000
000000C0000000
000001C0000000
000001E0000000
000003E0000000
000003F0000000
000007F0000000
000007F8000000
00000FFC000000
00000FFC000000
00001F3E000000
00001F3E000000
00003E1F000000
00007E1F000000
00007C0F800000
0000F80F800000
0000F807C00000
0001F007C00000
0001F003E00000
0003E003E00000
0003E001F00000
0007C001F00000
0007C000F80000
000F8000F80000
000F80007C0000
001F00007C0000
001F00003E0000
003E00003E0000
003E00001F0000
007FFFFFFF8000
007FFFFFFF8000
00FFFFFFFFC000
00FFFFFFFFC000
01FFFFFFFFE000
03E0000003E000
03E0000001F000
07C0000001F000
07C0000000F800
0F80000000F800
0F800000007C00
1F000000007C00
1F000000003E00
3E000000003E00
3E000000001F00
7C000000001F00
7C000000000F80
F8000000000F80
ENDCHAR
STARTCHAR C0197
ENCODING 197
SWIDTH 781 0
DWIDTH 50 0
BBX 50 55 0 -1
BITMAP
000003E0000000
000007F0000000
000007F8000000
00000FF8000000
00000FF8000000
000007F8000000
000007F0000000
000003E0000000
00000080000000
000000C0000000
000001C0000000
000001E0000000
000003E0000000
000003F0000000
000007F0000000
000007F8000000
00000FFC000000
00000FFC000000
00001F3E000000
00001F3E000000
00003E1F000000
00007E1F000000
00007C0F800000
0000F80F800000
0000F807C00000
0001F007C00000
0001F003E00000
0003E003E00000
0003E001F00000
0007C001F00000
0007C000F80000
000F8000F80000
000F80007C0000
001F00007C0000
001F00003E0000
003E00003E0000
003E00001F0000
007FFFFFFF8000
007FFFFFFF8000
00FFFFFFFFC000
00FFFFFFFFC000
01FFFFFFFFE000
03E0000003E000
03E0000001F000
07C0000001F000
07C0000000F800
0F80000000F800
0F800000007C00
1F000000007C00
1F000000003E00
3E000000003E00
3E000000001F00
7C000000001F00
7C000000000F80
F8000000000F80
ENDCHAR
STARTCHAR C0198
ENCODING 198
SWIDTH 812 0
DWIDTH 52 0
BBX 51 47 0 -1
BITMAP
0000001FFFFFE0
0000003FFFFFE0
0000003FFFFFE0
0000007FFFFFE0
0000007FFFFFE0
000000FF000000
000001FF000000
000001FF000000
000003FF000000
000003FF000000
000007FF000000
00000FFF000000
00000FDF000000
00001FDF000000
00001F9F000000
00003F9F000000
00003F1F000000
00007F1F000000
0000FE1F000000
0000FC1F000000
0001FC1F000000
0001F81F000000
0003F81F000000
0007F01F000000
0007E01F000000
000FE01F000000
000FC01F000000
001FC01F000000
001F801F000000
003FFFFFFFFFE0
007FFFFFFFFFE0
007FFFFFFFFFE0
00FFFFFFFFFFE0
00FFFFFFFFFFE0
01FC001F000000
01F8001F000000
03F0001F000000
07F0001F000000
07E0001F000000
0FE0001F000000
0FC0001F000000
1FC0001F000000
3F80001FFFFFE0
3F00001FFFFFE0
7F00001FFFFFE0
7E00001FFFFFE0
FE00001FFFFFE0
ENDCHAR
STARTCHAR C0199
ENCODING 199
SWIDTH 750 0
DWIDTH 48 0
BBX 47 59 0 -13
BITMAP
00001FF80000
0001FFFF0000
0007FFFFC000
001FFFFFF000
003FFFFFF800
00FFE00FFE00
01FF0001FF00
03FC00007F80
07F800003FC0
07F000000FC0
0FC0000007E0
1FC0000003F0
1F80000003F0
3F00000001F8
3E00000000F8
7E00000000FC
7C000000007C
7C000000007C
FC000000007E
F80000000000
F80000000000
F80000000000
F80000000000
F80000000000
F80000000000
F80000000000
F80000000000
F80000000000
FC0000000000
7C000000007C
7C000000007C
7E00000000FC
3E00000000F8
3F00000001F8
1F80000003F0
1F80000003F0
0FC0000007E0
07E000000FC0
07F800003FC0
03FC00007F80
01FF0001FF00
00FFE00FFE00
007FFFFFF800
001FFFFFF000
0007FFFFC000
0001FFFF0000
00003FF80000
000003F00000
000003FC0000
000003FE0000
000003FF0000
000003FF8000
0000003F8000
0000001F8000
0000003F8000
000003FF0000
000003FF0000
000003FE0000
000003FC0000
000003E00000
ENDCHAR
STARTCHAR C0200
ENCODING 200
SWIDTH 593 0
DWIDTH 38 0
BBX 36 55 0 -1
BITMAP
000FC00000
0007E00000
0003E00000
0003F00000
0001F00000
0000F80000
0000FC0000
00007C0000
00007E0000
00003E0000
FFFFFFFFF0
FFFFFFFFF0
FFFFFFFFF0
FFFFFFFFF0
FFFFFFFFF0
F800000000
F800000000
F800000000
F800000000
F800000000
F800000000
F800000000
F800000000
F800000000
F800000000
F800000000
F800000000
F800000000
F800000000
F800000000
F800000000
F800000000
F800000000
F800000000
F800000000
F800000000
F800000000
F800000000
F800000000
FFFFFFFFF0
FFFFFFFFF0
FFFFFFFFF0
FFFFFFFFF0
FFFFFFFFF0
F800000000
F800000000
F800000000
F800000000
F800000000
F800000000
F800000000
F800000000
FFFFFFFFF0
FFFFFFFFF0
FFFFFFFFF0
FFFFFFFFF0
FFFFFFFFF0
ENDCHAR
STARTCHAR C0201
ENCODING 201
SWIDTH 593 0
DWIDTH 38 0
BBX 36 55 0 -1
BITMAP
00001F8000
00001F0000
00003E0000
00007E0000
00007C0000
0000FC0000
0000F80000
0001F00000
0003F00000
0003E00000
FFFFFFFFF0
FFFFFFFFF0
FFFFFFFFF0
FFFFFFFFF0
FFFFFFFFF0
F800000000
F800000000
F800000000
F800000000
F800000000
F800000000
F800000000
F800000000
F800000000
F800000000
F800000000
F800000000
F800000000
F800000000
F800000000
F800000000
F800000000
F800000000
F800000000
F800000000
F800000000
F800000000
F800000000
F800000000
FFFFFFFFF0
FFFFFFFFF0
FFFFFFFFF0
FFFFFFFFF0
FFFFFFFFF0
F800000000
F800000000
F800000000
F800000000
F800000000
F800000000
F800000000
F800000000
FFFFFFFFF0
FFFFFFFFF0
FFFFFFFFF0
FFFFFFFFF0
FFFFFFFFF0
ENDCHAR
STARTCHAR C0202
ENCODING 202
SWIDTH 593 0
DWIDTH 38 0
BBX 36 55 0 -1
BITMAP
0000100000
0000100000
0000380000
00003C0000
00007C0000
0000FE0000
0000FF0000
0001FF0000
0003EF8000
0003EF8000
0000000000
FFFFFFFFF0
FFFFFFFFF0
FFFFFFFFF0
FFFFFFFFF0
FFFFFFFFF0
F800000000
F800000000
F800000000
F800000000
F800000000
F800000000
F800000000
F800000000
F800000000
F800000000
F800000000
F800000000
F800000000
F800000000
F800000000
F800000000
F800000000
F800000000
F800000000
F800000000
F800000000
F800000000
F800000000
F800000000
FFFFFFFFF0
FFFFFFFFF0
FFFFFFFFF0
FFFFFFFFF0
FFFFFFFFF0
F800000000
F800000000
F800000000
F800000000
F800000000
F800000000
F800000000
F800000000
FFFFFFFFF0
FFFFFFFFF0
FFFFFFFFF0
FFFFFFFFF0
FFFFFFFFF0
ENDCHAR
STARTCHAR C0203
ENCODING 203
SWIDTH 593 0
DWIDTH 38 0
BBX 36 55 0 -1
BITMAP
0003030000
000FCFC000
000FCFC000
000FEFE000
000FEFE000
000FCFC000
0007C7C000
0000000000
FFFFFFFFF0
FFFFFFFFF0
FFFFFFFFF0
FFFFFFFFF0
FFFFFFFFF0
F800000000
F800000000
F800000000
F800000000
F800000000
F800000000
F800000000
F800000000
F800000000
F800000000
F800000000
F800000000
F800000000
F800000000
F800000000
F800000000
F800000000
F800000000
F800000000
F800000000
F800000000
F800000000
F800000000
F800000000
FFFFFFFFF0
FFFFFFFFF0
FFFFFFFFF0
FFFFFFFFF0
FFFFFFFFF0
F800000000
F800000000
F800000000
F800000000
F800000000
F800000000
F800000000
F800000000
FFFFFFFFF0
FFFFFFFFF0
FFFFFFFFF0
FFFFFFFFF0
FFFFFFFFF0
ENDCHAR
STARTCHAR C0204
ENCODING 204
SWIDTH 187 0
DWIDTH 12 0
BBX 11 55 0 -1
BITMAP
FC00
7C00
7E00
3E00
1F00
1F80
0F80
07C0
07E0
0000
03E0
03E0
03E0
03E0
03E0
03E0
03E0
03E0
03E0
03E0
03E0
03E0
03E0
03E0
03E0
03E0
03E0
03E0
03E0
03E0
03E0
03E0
03E0
03E0
03E0
03E0
03E0
03E0
03E0
03E0
03E0
03E0
03E0
03E0
03E0
03E0
03E0
03E0
03E0
03E0
03E0
03E0
03E0
03E0
03E0
03E0
03E0
ENDCHAR
STARTCHAR C0205
ENCODING 205
SWIDTH 187 0
DWIDTH 12 0
BBX 12 55 0 -1
BITMAP
03E0
07E0
0FC0
0F80
1F80
1F00
3E00
7E00
7C00
0000
7C00
7C00
7C00
7C00
7C00
7C00
7C00
7C00
7C00
7C00
7C00
7C00
7C00
7C00
7C00
7C00
7C00
7C00
7C00
7C00
7C00
7C00
7C00
7C00
7C00
7C00
7C00
7C00
7C00
7C00
7C00
7C00
7C00
7C00
7C00
7C00
7C00
7C00
7C00
7C00
7C00
7C00
7C00
7C00
7C00
7C00
7C00
ENDCHAR
STARTCHAR C0206
ENCODING 206
SWIDTH 203 0
DWIDTH 13 0
BBX 13 55 0 -1
BITMAP
0000
0200
0700
0F00
0F80
1FC0
3FC0
3FE0
7DE0
F9F0
0000
0F80
0F80
0F80
0F80
0F80
0F80
0F80
0F80
0F80
0F80
0F80
0F80
0F80
0F80
0F80
0F80
0F80
0F80
0F80
0F80
0F80
0F80
0F80
0F80
0F80
0F80
0F80
0F80
0F80
0F80
0F80
0F80
0F80
0F80
0F80
0F80
0F80
0F80
0F80
0F80
0F80
0F80
0F80
0F80
0F80
0F80
0F80
ENDCHAR
STARTCHAR C0207
ENCODING 207
SWIDTH 265 0
DWIDTH 17 0
BBX 15 55 0 -1
BITMAP
383C
7E7E
FEFE
FEFE
FEFE
7E7E
7C3C
0000
07C0
07C0
07C0
07C0
07C0
07C0
07C0
07C0
07C0
07C0
07C0
07C0
07C0
07C0
07C0
07C0
07C0
07C0
07C0
07C0
07C0
07C0
07C0
07C0
07C0
07C0
07C0
07C0
07C0
07C0
07C0
07C0
07C0
07C0
07C0
07C0
07C0
07C0
07C0
07C0
07C0
07C0
07C0
07C0
07C0
07C0
07C0
ENDCHAR
STARTCHAR C0208
ENCODING 208
SWIDTH 796 0
DWIDTH 51 0
BBX 49 47 0 -1
BITMAP
03FFFF00000000
03FFFFFF800000
03FFFFFFF00000
03FFFFFFFC0000
03FFFFFFFF0000
03E0001FFF8000
03E00000FFC000
03E000001FE000
03E0000007F000
03E0000003F800
03E0000001FC00
03E0000000FC00
03E00000007E00
03E00000003E00
03E00000003F00
03E00000001F00
03E00000001F00
03E00000001F80
03E00000000F80
03E00000000F80
03E00000000F80
FFFF0000000F80
FFFF0000000F80
FFFF0000000F80
FFFF0000000F80
03E00000000F80
03E00000000F80
03E00000000F80
03E00000000F80
03E00000000F80
03E00000001F00
03E00000001F00
03E00000003F00
03E00000003E00
03E00000007E00
03E00000007C00
03E0000000FC00
03E0000001F800
03E0000007F000
03E000001FF000
03E000007FE000
03E00007FF8000
03FFFFFFFF0000
03FFFFFFFC0000
03FFFFFFF00000
03FFFFFFC00000
03FFFFF8000000
ENDCHAR
STARTCHAR C0209
ENCODING 209
SWIDTH 687 0
DWIDTH 44 0
BBX 42 55 0 -1
BITMAP
000020000000
0001FC000000
0003FF000000
0007FF87C000
000FFFFF8000
000F8FFF8000
000003FF0000
000001FE0000
8000007807C0
C000000007C0
E000000007C0
F000000007C0
F800000007C0
FC00000007C0
FE00000007C0
FF00000007C0
FF80000007C0
FFC0000007C0
FFE0000007C0
FFF0000007C0
FBF8000007C0
F9FC000007C0
F8FE000007C0
F87F000007C0
F83F800007C0
F81FC00007C0
F80FE00007C0
F807F00007C0
F803F80007C0
F801FC0007C0
F800FE0007C0
F8007F0007C0
F8003F8007C0
F8001FC007C0
F8000FE007C0
F80007F007C0
F80003F807C0
F80001FC07C0
F80000FE07C0
F800003F07C0
F800001F87C0
F800000FC7C0
F8000007E7C0
F8000003F7C0
F8000001FFC0
F8000000FFC0
F80000007FC0
F80000003FC0
F80000001FC0
F80000000FC0
F800000007C0
F800000003C0
F800000001C0
F800000000C0
F80000000040
ENDCHAR
STARTCHAR C0210
ENCODING 210
SWIDTH 781 0
DWIDTH 50 0
BBX 48 55 0 -1
BITMAP
00007C000000
00007E000000
00003F000000
00001F000000
00001F800000
00000F800000
000007C00000
000007E00000
000000000000
00007FFE0000
0003FFFFC000
000FFFFFF000
001FFFFFF800
007FFFFFFE00
00FFC003FF00
01FF0000FF80
03FC00003FC0
07F800001FE0
0FE0000007E0
0FC0000003F0
1F80000003F8
1F80000001F8
3F00000000FC
3E000000007C
7E000000007E
7C000000003E
7C000000003E
FC000000003E
FC000000003F
F8000000001F
F8000000001F
F8000000001F
F8000000001F
F8000000001F
F8000000001F
F8000000001F
FC000000003F
FC000000003E
7C000000003E
7C000000003E
7E000000007E
3E000000007C
3F00000000FC
1F80000001F8
1F80000003F8
0FC0000003F0
0FE0000007E0
07F800001FE0
03FC00003FC0
01FF0000FF80
00FFC003FF00
007FFFFFFE00
001FFFFFF800
000FFFFFF000
0003FFFFC000
00007FFE0000
ENDCHAR
STARTCHAR C0211
ENCODING 211
SWIDTH 781 0
DWIDTH 50 0
BBX 48 55 0 -1
BITMAP
0000007E0000
0000007C0000
000000FC0000
000001F80000
000001F00000
000003F00000
000003E00000
000007C00000
000000000000
00007FFE0000
0003FFFFC000
000FFFFFF000
001FFFFFF800
007FFFFFFE00
00FFC003FF00
01FF0000FF80
03FC00003FC0
07F800001FE0
0FE0000007E0
0FC0000003F0
1F80000003F8
1F80000001F8
3F00000000FC
3E000000007C
7E000000007E
7C000000003E
7C000000003E
FC000000003E
FC000000003F
F8000000001F
F8000000001F
F8000000001F
F8000000001F
F8000000001F
F8000000001F
F8000000001F
FC000000003F
FC000000003E
7C000000003E
7C000000003E
7E000000007E
3E000000007C
3F00000000FC
1F80000001F8
1F80000003F8
0FC0000003F0
0FE0000007E0
07F800001FE0
03FC00003FC0
01FF0000FF80
00FFC003FF00
007FFFFFFE00
001FFFFFF800
000FFFFFF000
0003FFFFC000
00007FFE0000
ENDCHAR
STARTCHAR C0212
ENCODING 212
SWIDTH 781 0
DWIDTH 50 0
BBX 48 55 0 -1
BITMAP
000000000000
000001800000
000001800000
000003C00000
000007E00000
000007E00000
00000FF00000
00001FF80000
00001F780000
00003E7C0000
000000000000
00007FFE0000
0003FFFFC000
000FFFFFF000
001FFFFFF800
007FFFFFFE00
00FFC003FF00
01FF0000FF80
03FC00003FC0
07F800001FE0
0FE0000007E0
0FC0000003F0
1F80000003F8
1F80000001F8
3F00000000FC
3E000000007C
7E000000007E
7C000000003E
7C000000003E
FC000000003E
FC000000003F
F8000000001F
F8000000001F
F8000000001F
F8000000001F
F8000000001F
F8000000001F
F8000000001F
FC000000003F
FC000000003E
7C000000003E
7C000000003E
7E000000007E
3E000000007C
3F00000000FC
1F80000001F8
1F80000003F8
0FC0000003F0
0FE0000007E0
07F800001FE0
03FC00003FC0
01FF0000FF80
00FFC003FF00
007FFFFFFE00
001FFFFFF800
000FFFFFF000
0003FFFFC000
00007FFE0000
ENDCHAR
STARTCHAR C0213
ENCODING 213
SWIDTH 781 0
DWIDTH 50 0
BBX 48 55 0 -1
BITMAP
00007F000000
0001FF800000
0001FFC3F000
0003FFF7E000
0007E3FFC000
000001FF8000
000000FF0000
0000003E0000
000000000000
00007FFE0000
0003FFFFC000
000FFFFFF000
001FFFFFF800
007FFFFFFE00
00FFC003FF00
01FF0000FF80
03FC00003FC0
07F800001FE0
0FE0000007E0
0FC0000003F0
1F80000003F8
1F80000001F8
3F00000000FC
3E000000007C
7E000000007E
7C000000003E
7C000000003E
FC000000003E
FC000000003F
F8000000001F
F8000000001F
F8000000001F
F8000000001F
F8000000001F
F8000000001F
F8000000001F
FC000000003F
FC000000003E
7C000000003E
7C000000003E
7E000000007E
3E000000007C
3F00000000FC
1F80000001F8
1F80000003F8
0FC0000003F0
0FE0000007E0
07F800001FE0
03FC00003FC0
01FF0000FF80
00FFC003FF00
007FFFFFFE00
001FFFFFF800
000FFFFFF000
0003FFFFC000
00007FFE0000
ENDCHAR
STARTCHAR C0214
ENCODING 214
SWIDTH 781 0
DWIDTH 50 0
BBX 48 55 0 -1
BITMAP
00003E3E0000
00007F7F0000
00007F7F0000
00007F7F0000
00007F7F0000
00003E3E0000
00001C1C0000
000000000000
00007FFE0000
0003FFFFC000
000FFFFFF000
001FFFFFF800
007FFFFFFE00
00FFC003FF00
01FF0000FF80
03FC00003FC0
07F800001FE0
0FE0000007E0
0FC0000003F0
1F80000003F8
1F80000001F8
3F00000000FC
3E000000007C
7E000000007E
7C000000003E
7C000000003E
FC000000003E
FC000000003F
F8000000001F
F8000000001F
F8000000001F
F8000000001F
F8000000001F
F8000000001F
F8000000001F
FC000000003F
FC000000003E
7C000000003E
7C000000003E
7E000000007E
3E000000007C
3F00000000FC
1F80000001F8
1F80000003F8
0FC0000003F0
0FE0000007E0
07F800001FE0
03FC00003FC0
01FF0000FF80
00FFC003FF00
007FFFFFFE00
001FFFFFF800
000FFFFFF000
0003FFFFC000
00007FFE0000
ENDCHAR
STARTCHAR C0215
ENCODING 215
SWIDTH 359 0
DWIDTH 23 0
BBX 22 22 0 8
BITMAP
100020
380070
7C00F8
FE01FC
7F03F8
3F87F0
1FCFE0
0FFFC0
07FF80
03FF00
01FE00
01FE00
03FF00
07FF80
0FFFC0
1FCFE0
3F87F0
7F03F8
FE01FC
7C00F8
380070
100020
ENDCHAR
STARTCHAR C0216
ENCODING 216
SWIDTH 781 0
DWIDTH 50 0
BBX 48 53 0 -4
BITMAP
000000003F00
000000003E00
000000007E00
00007FFE7C00
0003FFFFFC00
000FFFFFF800
001FFFFFF800
007FFFFFFE00
00FFC003FF00
01FF0003FF80
03FC0007FFC0
07F80007DFE0
0FE0000FC7E0
0FC0001F83F0
1F80001F83F8
1F80003F01F8
3F00003E00FC
3E00007E007C
7E00007C007E
7C0000FC003E
7C0000F8003E
FC0001F8003E
FC0001F0003F
F80003F0001F
F80003E0001F
F80007E0001F
F80007C0001F
F8000FC0001F
F8000F80001F
F8001F80001F
FC001F00003F
FC003F00003E
7C003E00003E
7C007E00003E
7E007C00007E
3E00FC00007C
3F00F80000FC
1F81F80001F8
1F83F00003F8
0FC3F00003F0
0FE7E00007E0
07FFC0001FE0
03FFC0003FC0
01FF8000FF80
00FFC003FF00
007FFFFFFE00
003FFFFFF800
003FFFFFF000
007FFFFFC000
007C7FFE0000
00FC00000000
00F800000000
01F800000000
ENDCHAR
STARTCHAR C0217
ENCODING 217
SWIDTH 687 0
DWIDTH 44 0
BBX 42 55 0 -1
BITMAP
0003F0000000
0001F0000000
0000F8000000
0000FC000000
00007C000000
00007E000000
00003E000000
00001F000000
F8001F8003C0
F0000F8003C0
F000000003C0
F000000003C0
F000000003C0
F000000003C0
F000000003C0
F000000003C0
F000000003C0
F000000003C0
F000000003C0
F00000000380
F00000000380
F00000000380
F00000000380
E00000000380
E00000000380
E00000000380
E00000000380
E00000000380
E00000000380
E00000000380
E00000000380
F800000003C0
F800000003C0
F800000003C0
F800000007C0
F800000007C0
7800000007C0
7C0000000780
7C0000000F80
7C0000000F80
3E0000001F80
3E0000001F00
1F0000003F00
1F8000007E00
0FC000007E00
0FE00000FC00
07F00001F800
03F80007F000
01FE001FE000
00FFC0FFC000
007FFFFF8000
003FFFFF0000
000FFFFC0000
0003FFF00000
00003F800000
ENDCHAR
STARTCHAR C0218
ENCODING 218
SWIDTH 687 0
DWIDTH 44 0
BBX 42 55 0 -1
BITMAP
000003E00000
000007C00000
00000FC00000
00000F800000
00001F800000
00001F000000
00003E000000
00007E000000
F8007C0003C0
F000F80003C0
F000000003C0
F000000003C0
F000000003C0
F000000003C0
F000000003C0
F000000003C0
F000000003C0
F000000003C0
F000000003C0
F00000000380
F00000000380
F00000000380
F00000000380
E00000000380
E00000000380
E00000000380
E00000000380
E00000000380
E00000000380
E00000000380
E00000000380
F800000003C0
F800000003C0
F800000003C0
F800000007C0
F800000007C0
7800000007C0
7C0000000780
7C0000000F80
7C0000000F80
3E0000001F80
3E0000001F00
1F0000003F00
1F8000007E00
0FC000007E00
0FE00000FC00
07F00001F800
03F80007F000
01FE001FE000
00FFC0FFC000
007FFFFF8000
003FFFFF0000
000FFFFC0000
0003FFF00000
00003F800000
ENDCHAR
STARTCHAR C0219
ENCODING 219
SWIDTH 687 0
DWIDTH 44 0
BBX 42 55 0 -1
BITMAP
000004000000
000004000000
00000E000000
00001F000000
00001F000000
00003F800000
00007FC00000
00007FC00000
0000FBE00000
F800FBE003C0
F000000003C0
F000000003C0
F000000003C0
F000000003C0
F000000003C0
F000000003C0
F000000003C0
F000000003C0
F000000003C0
F000000003C0
F00000000380
F00000000380
F00000000380
F00000000380
E00000000380
E00000000380
E00000000380
E00000000380
E00000000380
E00000000380
E00000000380
E00000000380
F800000003C0
F800000003C0
F800000003C0
F800000007C0
F800000007C0
7800000007C0
7C0000000780
7C0000000F80
7C0000000F80
3E0000001F80
3E0000001F00
1F0000003F00
1F8000007E00
0FC000007E00
0FE00000FC00
07F00001F800
03F80007F000
01FE001FE000
00FFC0FFC000
007FFFFF8000
003FFFFF0000
000FFFFC0000
0003FFF00000
00003F800000
ENDCHAR
STARTCHAR C0220
ENCODING 220
SWIDTH 687 0
DWIDTH 44 0
BBX 42 54 0 -1
BITMAP
0000E0E00000
0001F1F00000
0003FBF80000
0003FBF80000
0003FBF80000
0003FBF80000
0001F1F00000
F800000003C0
F000000003C0
F000000003C0
F000000003C0
F000000003C0
F000000003C0
F000000003C0
F000000003C0
F000000003C0
F000000003C0
F000000003C0
F00000000380
F00000000380
F00000000380
F00000000380
E00000000380
E00000000380
E00000000380
E00000000380
E00000000380
E00000000380
E00000000380
E00000000380
F800000003C0
F800000003C0
F800000003C0
F800000007C0
F800000007C0
7800000007C0
7C0000000780
7C0000000F80
7C0000000F80
3E0000001F80
3E0000001F00
1F0000003F00
1F8000007E00
0FC000007E00
0FE00000FC00
07F00001F800
03F80007F000
01FE001FE000
00FFC0FFC000
007FFFFF8000
003FFFFF0000
000FFFFC0000
0003FFF00000
00003F800000
ENDCHAR
STARTCHAR C0221
ENCODING 221
SWIDTH 609 0
DWIDTH 39 0
BBX 38 55 0 -1
BITMAP
000007C000
00000FC000
00000F8000
00001F8000
00003F0000
00003E0000
00007E0000
00007C0000
F800F8007C
7C01F800FC
7C000000F8
3E000001F8
3E000001F0
1F000003E0
1F800003E0
0F800007C0
0FC00007C0
07C0000F80
07E0000F80
03E0001F00
03F0001F00
01F0003E00
01F8007E00
00F8007C00
00FC00FC00
007C00F800
003E01F800
003E01F000
001F03F000
001F03E000
000F87E000
000F87C000
0007CFC000
0007CF8000
0003FF0000
0003FF0000
0001FE0000
0001FE0000
0000FC0000
0000FC0000
00007C0000
00007C0000
00007C0000
00007C0000
00007C0000
00007C0000
00007C0000
00007C0000
00007C0000
00007C0000
00007C0000
00007C0000
00007C0000
00007C0000
00007C0000
ENDCHAR
STARTCHAR C0222
ENCODING 222
SWIDTH 546 0
DWIDTH 35 0
BBX 33 47 0 -1
BITMAP
F800000000
F800000000
F800000000
F800000000
F800000000
F800000000
F800000000
FFFFE00000
FFFFFC0000
FFFFFF0000
FFFFFFC000
FFFFFFE000
F8001FF800
F80003F800
F80001FC00
F800007E00
F800007E00
F800003F00
F800001F00
F800001F00
F800001F00
F800000F80
F800000F80
F800000F80
F800000F80
F800000F80
F800001F80
F800001F00
F800001F00
F800001F00
F800003F00
F800007E00
F80000FE00
F80001FC00
F80003F800
F8001FF000
FFFFFFE000
FFFFFFC000
FFFFFF0000
FFFFFC0000
FFFFE00000
F800000000
F800000000
F800000000
F800000000
F800000000
F800000000
ENDCHAR
STARTCHAR C0223
ENCODING 223
SWIDTH 546 0
DWIDTH 35 0
BBX 33 47 0 -1
BITMAP
000FFC0000
007FFF8000
01FFFFE000
07FFFFF000
0FFFFFF800
1FF003FC00
3F8000FE00
3F00007E00
7E00003F00
7C00001F00
FC00001F00
F800000F80
F800000F80
F800000F80
F800000F80
F800001F00
F800003F00
F80000FE00
F80003FE00
F8000FFC00
F8001FF000
F8003FC000
F8007F0000
F8007E0000
F8007E0000
F8007FC000
F8003FF000
F8001FF800
F80007FC00
F80001FE00
F800007F00
F800001F00
F800001F00
F800000F00
F800000F00
F800001F00
FFC0001F00
FFC0001F00
FBE0003E00
FBE0007E00
FBF000FC00
F9FC01FC00
F9FFFFF800
F8FFFFF000
F87FFFE000
F81FFFC000
F803FE0000
ENDCHAR
STARTCHAR C0224
ENCODING 224
SWIDTH 781 0
DWIDTH 50 0
BBX 48 55 0 -1
BITMAP
0000F8000000
0000FC000000
00007E000000
00003E000000
00003F000000
00001F000000
00001F800000
00000FC00000
000007C00000
000007E00000
000003E00000
000001F00000
000001F00000
000000F80000
000000000000
00007FFC0000
0001FFFF8000
000FFFFFE000
001FFFFFF800
007FFFFFFC00
00FFC003FE00
01FE0000FF00
03F800003F80
07F000000FC0
07E0000007E0
0FC0000003F0
1F80000001F0
1F00000001F8
3F00000000FC
3E000000007C
7E000000007C
7C000000003E
7C000000003E
F8000000003E
F8000000003E
F8000000001E
F8000000001F
F8000000001F
F8000000001F
F8000000001F
F8000000001F
F8000000001F
F8000000003F
F8000000003F
7C000000003F
7C000000003F
7E000000007F
3E000000007F
3F00000000FF
1F00000001FF
1F80000001FF
0FC0000003FF
07E0000007FF
07F000000FDF
03F800003F9F
01FE0000FF1F
00FFC003FE1F
007FFFFFFC1F
001FFFFFF81F
000FFFFFE01F
0001FFFF801F
00007FFC001F
ENDCHAR
STARTCHAR C0225
ENCODING 225
SWIDTH 781 0
DWIDTH 50 0
BBX 48 55 0 -1
BITMAP
0000001F8000
0000001F0000
0000003F0000
0000007E0000
0000007C0000
000000FC0000
000000F80000
000001F80000
000003F00000
000003E00000
000007E00000
000007C00000
00000F800000
00000F800000
000000000000
00007FFC0000
0001FFFF8000
000FFFFFE000
001FFFFFF800
007FFFFFFC00
00FFC003FE00
01FE0000FF00
03F800003F80
07F000000FC0
07E0000007E0
0FC0000003F0
1F80000001F0
1F00000001F8
3F00000000FC
3E000000007C
7E000000007C
7C000000003E
7C000000003E
F8000000003E
F8000000003E
F8000000001E
F8000000001F
F8000000001F
F8000000001F
F8000000001F
F8000000001F
F8000000001F
F8000000003F
F8000000003F
7C000000003F
7C000000003F
7E000000007F
3E000000007F
3F00000000FF
1F00000001FF
1F80000001FF
0FC0000003FF
07E0000007FF
07F000000FDF
03F800003F9F
01FE0000FF1F
00FFC003FE1F
007FFFFFFC1F
001FFFFFF81F
000FFFFFE01F
0001FFFF801F
00007FFC001F
ENDCHAR
STARTCHAR C0226
ENCODING 226
SWIDTH 781 0
DWIDTH 50 0
BBX 48 55 0 -1
BITMAP
000000800000
000001800000
000001C00000
000003E00000
000007E00000
000007F00000
00000FF00000
00000FF80000
00001F7C0000
00003E7C0000
00007FFC0000
0001FFFF8000
000FFFFFE000
001FFFFFF800
007FFFFFFC00
00FFC003FE00
01FE0000FF00
03F800003F80
07F000000FC0
07E0000007E0
0FC0000003F0
1F80000001F0
1F00000001F8
3F00000000FC
3E000000007C
7E000000007C
7C000000003E
7C000000003E
F8000000003E
F8000000003E
F8000000001E
F8000000001F
F8000000001F
F8000000001F
F8000000001F
F8000000001F
F8000000001F
F8000000003F
F8000000003F
7C000000003F
7C000000003F
7E000000007F
3E000000007F
3F00000000FF
1F00000001FF
1F80000001FF
0FC0000003FF
07E0000007FF
07F000000FDF
03F800003F9F
01FE0000FF1F
00FFC003FE1F
007FFFFFFC1F
001FFFFFF81F
000FFFFFE01F
0001FFFF801F
00007FFC001F
ENDCHAR
STARTCHAR C0227
ENCODING 227
SWIDTH 781 0
DWIDTH 50 0
BBX 48 55 0 -1
BITMAP
000018000000
00007F000000
0001FF800000
0001FFC3F000
0003FFFFE000
0007E3FFC000
000001FF8000
000000FF0000
00007FFC0000
0001FFFF8000
000FFFFFE000
001FFFFFF800
007FFFFFFC00
00FFC003FE00
01FE0000FF00
03F800003F80
07F000000FC0
07E0000007E0
0FC0000003F0
1F80000001F0
1F00000001F8
3F00000000FC
3E000000007C
7E000000007C
7C000000003E
7C000000003E
F8000000003E
F8000000003E
F8000000001E
F8000000001F
F8000000001F
F8000000001F
F8000000001F
F8000000001F
F8000000001F
F8000000003F
F8000000003F
7C000000003F
7C000000003F
7E000000007F
3E000000007F
3F00000000FF
1F00000001FF
1F80000001FF
0FC0000003FF
07E0000007FF
07F000000FDF
03F800003F9F
01FE0000FF1F
00FFC003FE1F
007FFFFFFC1F
001FFFFFF81F
000FFFFFE01F
0001FFFF801F
00007FFC001F
ENDCHAR
STARTCHAR C0228
ENCODING 228
SWIDTH 781 0
DWIDTH 50 0
BBX 48 54 0 -1
BITMAP
00001C1C0000
00003E3E0000
00007F7F0000
00007F7F0000
00007F7F0000
00007F7F0000
00003E3E0000
00007FFC0000
0001FFFF8000
000FFFFFE000
001FFFFFF800
007FFFFFFC00
00FFC003FE00
01FE0000FF00
03F800003F80
07F000000FC0
07E0000007E0
0FC0000003F0
1F80000001F0
1F00000001F8
3F00000000FC
3E000000007C
7E000000007C
7C000000003E
7C000000003E
F8000000003E
F8000000003E
F8000000001E
F8000000001F
F8000000001F
F8000000001F
F8000000001F
F8000000001F
F8000000001F
F8000000003F
F8000000003F
7C000000003F
7C000000003F
7E000000007F
3E000000007F
3F00000000FF
1F00000001FF
1F80000001FF
0FC0000003FF
07E0000007FF
07F000000FDF
03F800003F9F
01FE0000FF1F
00FFC003FE1F
007FFFFFFC1F
001FFFFFF81F
000FFFFFE01F
0001FFFF801F
00007FFC001F
ENDCHAR
STARTCHAR C0229
ENCODING 229
SWIDTH 781 0
DWIDTH 50 0
BBX 48 55 0 -1
BITMAP
000000800000
000007E00000
000007F00000
00000FF00000
00000F780000
00000FF80000
00000FF00000
000007F00000
000003C00000
00007FFC0000
0001FFFF8000
000FFFFFE000
001FFFFFF800
007FFFFFFC00
00FFC003FE00
01FE0000FF00
03F800003F80
07F000000FC0
07E0000007E0
0FC0000003F0
1F80000001F0
1F00000001F8
3F00000000FC
3E000000007C
7E000000007C
7C000000003E
7C000000003E
F8000000003E
F8000000003E
F8000000001E
F8000000001F
F8000000001F
F8000000001F
F8000000001F
F8000000001F
F8000000001F
F8000000003F
F8000000003F
7C000000003F
7C000000003F
7E000000007F
3E000000007F
3F00000000FF
1F00000001FF
1F80000001FF
0FC0000003FF
07E0000007FF
07F000000FDF
03F800003F9F
01FE0000FF1F
00FFC003FE1F
007FFFFFFC1F
001FFFFFF81F
000FFFFFE01F
0001FFFF801F
00007FFC001F
ENDCHAR
STARTCHAR C0230
ENCODING 230
SWIDTH 1437 0
DWIDTH 92 0
BBX 90 47 0 -1
BITMAP
00007FFE0000000FFF800000
0003FFFFC000007FFFF00000
000FFFFFF00001FFFFFC0000
001FFFFFF80003FFFFFE0000
007FFFFFFE000FFFFFFF8000
00FFC003FF001FF800FFC000
01FF0000FF803FE0003FE000
03FC00003FC07F80000FF000
07F800001FE0FE000003F800
0FE0000007F1FC000001FC00
0FC0000003F3F8000000FC00
1F80000003FBF00000007E00
1F80000001FFE00000003F00
3F00000000FFE00000003F00
3E000000007FFFFFFFFFFF80
7E000000007FFFFFFFFFFF80
7C000000003FFFFFFFFFFF80
7C000000003FFFFFFFFFFFC0
FC000000003FFFFFFFFFFFC0
FC000000003F000000000000
F8000000001F000000000000
F8000000001F000000000000
F8000000001F000000000000
F8000000001F000000000000
F8000000001F000000000000
F8000000001F000000000000
F8000000001F000000000000
FC000000003F000000000000
FC000000003F800000000000
7C000000003F800000000FC0
7C000000003F800000000F80
7E000000007FC00000001F80
3E000000007FC00000001F00
3F00000000FFE00000003F00
1F80000001FFE00000003F00
1F80000003FFF00000007E00
0FC0000003FFF8000000FC00
0FE0000007FFFC000001FC00
07F800001FFFFE000003F800
03FC00003FDF7F80000FF000
01FF0000FF9F3FE0003FE000
00FFC003FF1F1FFC01FFC000
007FFFFFFE1F0FFFFFFF8000
001FFFFFF81F03FFFFFE0000
000FFFFFF01F01FFFFFC0000
0003FFFFC01F007FFFF00000
00007FFE001F0007FF800000
ENDCHAR
STARTCHAR C0231
ENCODING 231
SWIDTH 750 0
DWIDTH 48 0
BBX 47 59 0 -13
BITMAP
00001FF80000
0001FFFF0000
0007FFFFC000
001FFFFFF000
003FFFFFF800
00FFE00FFE00
01FF0001FF00
03FC00007F80
07F800003FC0
07F000000FC0
0FC0000007E0
1FC0000003F0
1F80000003F0
3F00000001F8
3E00000000F8
7E00000000FC
7C000000007C
7C000000007C
FC000000007E
F80000000000
F80000000000
F80000000000
F80000000000
F80000000000
F80000000000
F80000000000
F80000000000
F80000000000
FC0000000000
7C000000007C
7C000000007C
7E00000000FC
3E00000000F8
3F00000001F8
1F80000003F0
1F80000003F0
0FC0000007E0
07E000000FC0
07F800003FC0
03FC00007F80
01FF0001FF00
00FFE00FFE00
007FFFFFF800
001FFFFFF000
0007FFFFC000
0001FFFF0000
00003FF80000
000003F00000
000003FC0000
000003FE0000
000003FF0000
000003FF8000
0000003F8000
0000001F8000
0000003F8000
000003FF0000
000003FF0000
000003FE0000
000003FC0000
000003E00000
ENDCHAR
STARTCHAR C0232
ENCODING 232
SWIDTH 765 0
DWIDTH 49 0
BBX 47 55 0 -1
BITMAP
0001F0000000
0001F8000000
0000F8000000
00007C000000
00007E000000
00003E000000
00003F000000
00001F000000
00000F800000
00000FC00000
000007C00000
000007E00000
000003E00000
000001F00000
000000000000
00001FF80000
0001FFFF0000
0007FFFFC000
001FFFFFF000
003FFFFFF800
00FFC007FE00
01FF0001FF00
03FC00007F80
07F000001FC0
07E000000FE0
0FC0000007E0
1F80000003F0
1F00000001F0
3FFFFFFFFFF8
3FFFFFFFFFF8
7FFFFFFFFFFC
7FFFFFFFFFFC
7FFFFFFFFFFC
FC0000000000
F80000000000
F80000000000
F80000000000
F80000000000
F80000000000
F80000000000
F80000000000
F80000000000
F80000000000
FC0000000000
7C000000007C
7C000000007C
7E00000000FC
3E00000000F8
3F00000001F8
1F80000003F0
1F80000003F0
0FC0000007E0
07E000000FC0
07F800003FC0
03FC00007F80
01FF0001FF00
00FFE00FFE00
003FFFFFF800
001FFFFFF000
0007FFFFC000
0001FFFF0000
00003FF80000
ENDCHAR
STARTCHAR C0233
ENCODING 233
SWIDTH 765 0
DWIDTH 49 0
BBX 47 55 0 -1
BITMAP
0000003F0000
0000007E0000
0000007C0000
000000FC0000
000000F80000
000001F80000
000001F00000
000003E00000
000007E00000
000007C00000
00000FC00000
00000F800000
00001F000000
00003F000000
000000000000
00001FF80000
0001FFFF0000
0007FFFFC000
001FFFFFF000
003FFFFFF800
00FFC007FE00
01FF0001FF00
03FC00007F80
07F000001FC0
07E000000FE0
0FC0000007E0
1F80000003F0
1F00000001F0
3FFFFFFFFFF8
3FFFFFFFFFF8
7FFFFFFFFFFC
7FFFFFFFFFFC
7FFFFFFFFFFC
FC0000000000
F80000000000
F80000000000
F80000000000
F80000000000
F80000000000
F80000000000
F80000000000
F80000000000
F80000000000
FC0000000000
7C000000007C
7C000000007C
7E00000000FC
3E00000000F8
3F00000001F8
1F80000003F0
1F80000003F0
0FC0000007E0
07E000000FC0
07F800003FC0
03FC00007F80
01FF0001FF00
00FFE00FFE00
003FFFFFF800
001FFFFFF000
0007FFFFC000
0001FFFF0000
00003FF80000
ENDCHAR
STARTCHAR C0234
ENCODING 234
SWIDTH 765 0
DWIDTH 49 0
BBX 47 55 0 -1
BITMAP
000001000000
000003000000
000003800000
000007800000
00000FC00000
00000FE00000
00001FE00000
00003FF00000
00003EF80000
00007CF80000
00001FF80000
0001FFFF0000
0007FFFFC000
001FFFFFF000
003FFFFFF800
00FFC007FE00
01FF0001FF00
03FC00007F80
07F000001FC0
07E000000FE0
0FC0000007E0
1F80000003F0
1F00000001F0
3FFFFFFFFFF8
3FFFFFFFFFF8
7FFFFFFFFFFC
7FFFFFFFFFFC
7FFFFFFFFFFC
FC0000000000
F80000000000
F80000000000
F80000000000
F80000000000
F80000000000
F80000000000
F80000000000
F80000000000
F80000000000
FC0000000000
7C000000007C
7C000000007C
7E00000000FC
3E00000000F8
3F00000001F8
1F80000003F0
1F80000003F0
0FC0000007E0
07E000000FC0
07F800003FC0
03FC00007F80
01FF0001FF00
00FFE00FFE00
003FFFFFF800
001FFFFFF000
0007FFFFC000
0001FFFF0000
00003FF80000
ENDCHAR
STARTCHAR C0235
ENCODING 235
SWIDTH 765 0
DWIDTH 49 0
BBX 47 54 0 -1
BITMAP
000038380000
0000FCFC0000
0000FEFE0000
0000FEFE0000
0000FEFE0000
0000FCFC0000
00007C7C0000
00001FF80000
0001FFFF0000
0007FFFFC000
001FFFFFF000
003FFFFFF800
00FFC007FE00
01FF0001FF00
03FC00007F80
07F000001FC0
07E000000FE0
0FC0000007E0
1F80000003F0
1F00000001F0
3FFFFFFFFFF8
3FFFFFFFFFF8
7FFFFFFFFFFC
7FFFFFFFFFFC
7FFFFFFFFFFC
FC0000000000
F80000000000
F80000000000
F80000000000
F80000000000
F80000000000
F80000000000
F80000000000
F80000000000
F80000000000
FC0000000000
7C000000007C
7C000000007C
7E00000000FC
3E00000000F8
3F00000001F8
1F80000003F0
1F80000003F0
0FC0000007E0
07E000000FC0
07F800003FC0
03FC00007F80
01FF0001FF00
00FFE00FFE00
003FFFFFF800
001FFFFFF000
0007FFFFC000
0001FFFF0000
00003FF80000
ENDCHAR
STARTCHAR C0236
ENCODING 236
SWIDTH 187 0
DWIDTH 12 0
BBX 11 55 0 -1
BITMAP
7C00
7E00
3E00
3F00
1F00
0F80
0FC0
07C0
03E0
03E0
03E0
03E0
03E0
03E0
03E0
03E0
03E0
03E0
03E0
03E0
03E0
03E0
03E0
03E0
03E0
03E0
03E0
03E0
03E0
03E0
03E0
03E0
03E0
03E0
03E0
03E0
03E0
03E0
03E0
03E0
03E0
03E0
03E0
03E0
03E0
03E0
03E0
03E0
03E0
03E0
03E0
03E0
03E0
03E0
03E0
ENDCHAR
STARTCHAR C0237
ENCODING 237
SWIDTH 109 0
DWIDTH 7 0
BBX 14 55 0 -1
BITMAP
00FC
01F8
01F0
03F0
03E0
07E0
0FC0
0F80
1F80
1F00
3F00
3E00
7C00
FC00
0000
7800
7800
7800
7800
7800
7800
7800
7800
7800
7800
7800
7800
7800
7800
7800
7800
7800
7800
7800
7800
7800
7800
7800
7800
7800
7800
7800
7800
7800
7800
7800
7800
7800
7800
7800
7800
7800
7800
7800
7800
7800
7800
7800
7800
7800
7800
7800
ENDCHAR
STARTCHAR C0238
ENCODING 238
SWIDTH 171 0
DWIDTH 11 0
BBX 13 55 0 -1
BITMAP
0000
0200
0700
0F00
0F80
1FC0
3FC0
3FE0
7DE0
F9F0
0000
0F80
0F80
0F80
0F80
0F80
0F80
0F80
0F80
0F80
0F80
0F80
0F80
0F80
0F80
0F80
0F80
0F80
0F80
0F80
0F80
0F80
0F80
0F80
0F80
0F80
0F80
0F80
0F80
0F80
0F80
0F80
0F80
0F80
0F80
0F80
0F80
0F80
0F80
0F80
0F80
0F80
0F80
0F80
0F80
0F80
0F80
0F80
ENDCHAR
STARTCHAR C0239
ENCODING 239
SWIDTH 187 0
DWIDTH 12 0
BBX 15 55 0 -1
BITMAP
383C
7E7E
FEFE
FEFE
FEFE
7E7E
7C3C
0000
07C0
07C0
07C0
07C0
07C0
07C0
07C0
07C0
07C0
07C0
07C0
07C0
07C0
07C0
07C0
07C0
07C0
07C0
07C0
07C0
07C0
07C0
07C0
07C0
07C0
07C0
07C0
07C0
07C0
07C0
07C0
07C0
07C0
07C0
07C0
07C0
07C0
07C0
07C0
07C0
07C0
07C0
07C0
07C0
07C0
07C0
07C0
ENDCHAR
STARTCHAR C0240
ENCODING 240
SWIDTH 781 0
DWIDTH 50 0
BBX 49 57 -1 -3
BITMAP
00008000000000
0001F000000000
0001F000000000
000FF000000000
001FF000000000
001FFE00000000
001FFF80000000
000FFFE0000000
0003FFF8000000
0003DFFE000000
0007C3FF800000
0000FFFFC00000
0000FFFFF00000
0003FFFFF80000
000FFFFFFC0000
001FFFFFFE0000
003FF807FF0000
00FFC000FF8000
01FF00003FC000
01FC00000FE000
03F8000007F000
07F0000003F800
0FE0000001F800
0FC0000000FC00
1F80000000FC00
1F800000007E00
1F000000007E00
3F000000003E00
3E000000003F00
3E000000001F00
7E000000001F00
7E000000001F00
7C000000001F00
7C000000001F00
7C000000001F80
7C000000001F00
7C000000001F00
7C000000001F00
7E000000001F00
3E000000001F00
3E000000003F00
3F000000003F00
3F000000003E00
1F000000007E00
1F800000007C00
0FC0000000FC00
0FE0000001F800
07E0000003F800
03F0000007F000
03FC00000FE000
01FE00003FC000
00FF80007FC000
007FF003FF0000
003FFFFFFE0000
000FFFFFFC0000
0007FFFFF00000
0001FFFFC00000
00003FFE000000
00000000000000
00000000000000
ENDCHAR
STARTCHAR C0241
ENCODING 241
SWIDTH 703 0
DWIDTH 45 0
BBX 43 55 0 -1
BITMAP
0003F8000000
0007FC000000
000FFE0F8000
001FFFBF0000
003F1FFE0000
00000FFE0000
000007FC0000
000001F00000
00000F000000
0001FFF00000
0007FFFC0000
001FFFFF0000
003FFFFFC000
00FFF1FFE000
01FF001FF000
03FC0007F800
03F00001FC00
07E00000FC00
0FC000007E00
1F8000003F00
1F8000001F00
3F0000001F80
3E0000000F80
3E0000000FC0
7C00000007C0
7C00000007C0
7C00000003E0
F800000003E0
F800000003E0
F800000003E0
F800000003E0
F800000001E0
F800000001E0
F800000001E0
F800000001E0
F800000001E0
F800000001E0
F800000001E0
F800000001E0
F800000001E0
F800000001E0
F800000001E0
F800000001E0
F800000001E0
F800000001E0
F800000001E0
F800000001E0
F800000001E0
F800000001E0
F800000001E0
F800000001E0
F800000001E0
F800000001E0
F800000001E0
F800000001E0
F800000001E0
ENDCHAR
STARTCHAR C0242
ENCODING 242
SWIDTH 781 0
DWIDTH 50 0
BBX 48 55 0 -1
BITMAP
0001F8000000
0000F8000000
00007C000000
00007E000000
00003E000000
00003F000000
00001F000000
00000F800000
00000FC00000
000007C00000
000007E00000
000003E00000
000001F00000
000001F80000
000000000000
00007FFC0000
0001FFFF8000
000FFFFFE000
001FFFFFF800
007FFFFFFC00
00FFC003FE00
01FE0000FF00
03F800003F80
07F000000FC0
07E0000007E0
0FC0000003F0
1F80000001F0
1F00000001F8
3F00000000FC
3E000000007C
7E000000007C
7C000000003E
7C000000003E
F8000000003E
F8000000003E
F8000000001E
F8000000001F
F8000000001F
F8000000001F
F8000000001F
F8000000001F
F8000000001E
F8000000003E
F8000000003E
7C000000003E
7C000000003E
7E000000007C
3E000000007C
3F00000000FC
1F00000001F8
1F80000001F0
0FC0000003F0
07E0000007E0
07F000000FC0
03F800003F80
01FE0000FF00
00FFC003FE00
007FFFFFFC00
001FFFFFF800
000FFFFFE000
0001FFFF8000
00007FFC0000
ENDCHAR
STARTCHAR C0243
ENCODING 243
SWIDTH 781 0
DWIDTH 50 0
BBX 48 55 0 -1
BITMAP
0000001F0000
0000003F0000
0000003E0000
0000007C0000
000000FC0000
000000F80000
000001F80000
000001F00000
000003E00000
000007E00000
000007C00000
00000FC00000
00000F800000
00001F000000
000000000000
00007FFC0000
0001FFFF8000
000FFFFFE000
001FFFFFF800
007FFFFFFC00
00FFC003FE00
01FE0000FF00
03F800003F80
07F000000FC0
07E0000007E0
0FC0000003F0
1F80000001F0
1F00000001F8
3F00000000FC
3E000000007C
7E000000007C
7C000000003E
7C000000003E
F8000000003E
F8000000003E
F8000000001E
F8000000001F
F8000000001F
F8000000001F
F8000000001F
F8000000001F
F8000000001E
F8000000003E
F8000000003E
7C000000003E
7C000000003E
7E000000007C
3E000000007C
3F00000000FC
1F00000001F8
1F80000001F0
0FC0000003F0
07E0000007E0
07F000000FC0
03F800003F80
01FE0000FF00
00FFC003FE00
007FFFFFFC00
001FFFFFF800
000FFFFFE000
0001FFFF8000
00007FFC0000
ENDCHAR
STARTCHAR C0244
ENCODING 244
SWIDTH 781 0
DWIDTH 50 0
BBX 48 55 0 -1
BITMAP
000000000000
000001800000
000003800000
000003C00000
000007E00000
000007E00000
00000FF00000
00001FF00000
00001FF80000
00003E7C0000
000000000000
00007FFC0000
0001FFFF8000
000FFFFFE000
001FFFFFF800
007FFFFFFC00
00FFC003FE00
01FE0000FF00
03F800003F80
07F000000FC0
07E0000007E0
0FC0000003F0
1F80000001F0
1F00000001F8
3F00000000FC
3E000000007C
7E000000007C
7C000000003E
7C000000003E
F8000000003E
F8000000003E
F8000000001E
F8000000001F
F8000000001F
F8000000001F
F8000000001F
F8000000001F
F8000000001E
F8000000003E
F8000000003E
7C000000003E
7C000000003E
7E000000007C
3E000000007C
3F00000000FC
1F00000001F8
1F80000001F0
0FC0000003F0
07E0000007E0
07F000000FC0
03F800003F80
01FE0000FF00
00FFC003FE00
007FFFFFFC00
001FFFFFF800
000FFFFFE000
0001FFFF8000
00007FFC0000
ENDCHAR
STARTCHAR C0245
ENCODING 245
SWIDTH 781 0
DWIDTH 50 0
BBX 48 55 0 -1
BITMAP
0000FE000000
0001FF800000
0003FFC3E000
0007FFFFE000
0007C3FFC000
000001FF8000
000000FF0000
0000003C0000
00007FFC0000
0001FFFF8000
000FFFFFE000
001FFFFFF800
007FFFFFFC00
00FFC003FE00
01FE0000FF00
03F800003F80
07F000000FC0
07E0000007E0
0FC0000003F0
1F80000001F0
1F00000001F8
3F00000000FC
3E000000007C
7E000000007C
7C000000003E
7C000000003E
F8000000003E
F8000000003E
F8000000001E
F8000000001F
F8000000001F
F8000000001F
F8000000001F
F8000000001F
F8000000001E
F8000000003E
F8000000003E
7C000000003E
7C000000003E
7E000000007C
3E000000007C
3F00000000FC
1F00000001F8
1F80000001F0
0FC0000003F0
07E0000007E0
07F000000FC0
03F800003F80
01FE0000FF00
00FFC003FE00
007FFFFFFC00
001FFFFFF800
000FFFFFE000
0001FFFF8000
00007FFC0000
ENDCHAR
STARTCHAR C0246
ENCODING 246
SWIDTH 781 0
DWIDTH 50 0
BBX 48 54 0 -1
BITMAP
00007C7C0000
00007E7E0000
0000FEFE0000
0000FEFE0000
0000FEFE0000
00007E7E0000
000038380000
00007FFC0000
0001FFFF8000
000FFFFFE000
001FFFFFF800
007FFFFFFC00
00FFC003FE00
01FE0000FF00
03F800003F80
07F000000FC0
07E0000007E0
0FC0000003F0
1F80000001F0
1F00000001F8
3F00000000FC
3E000000007C
7E000000007C
7C000000003E
7C000000003E
F8000000003E
F8000000003E
F8000000001E
F8000000001F
F8000000001F
F8000000001F
F8000000001F
F8000000001F
F8000000001E
F8000000003E
F8000000003E
7C000000003E
7C000000003E
7E000000007C
3E000000007C
3F00000000FC
1F00000001F8
1F80000001F0
0FC0000003F0
07E0000007E0
07F000000FC0
03F800003F80
01FE0000FF00
00FFC003FE00
007FFFFFFC00
001FFFFFF800
000FFFFFE000
0001FFFF8000
00007FFC0000
ENDCHAR
STARTCHAR C0247
ENCODING 247
SWIDTH 437 0
DWIDTH 28 0
BBX 26 20 0 9
BITMAP
000C0000
003F0000
003F0000
003F8000
003F8000
003F0000
001F0000
00000000
FFFFFFC0
FFFFFFC0
FFFFFFC0
FFFFFFC0
00000000
001F0000
003F0000
003F8000
003F8000
003F8000
003F0000
000E0000
ENDCHAR
STARTCHAR C0248
ENCODING 248
SWIDTH 781 0
DWIDTH 50 0
BBX 48 53 0 -4
BITMAP
000000003F00
000000003E00
000000007E00
00007FFE7C00
0003FFFFFC00
000FFFFFF800
001FFFFFF800
007FFFFFFE00
00FFC003FF00
01FF0003FF80
03FC0007FFC0
07F80007DFE0
0FE0000FC7E0
0FC0001F83F0
1F80001F83F8
1F80003F01F8
3F00003E00FC
3E00007E007C
7E00007C007E
7C0000FC003E
7C0000F8003E
FC0001F8003E
FC0001F0003F
F80003F0001F
F80003E0001F
F80007E0001F
F80007C0001F
F8000FC0001F
F8000F80001F
F8001F80001F
FC001F00003F
FC003F00003E
7C003E00003E
7C007E00003E
7E007C00007E
3E00FC00007C
3F00F80000FC
1F81F80001F8
1F83F00003F8
0FC3F00003F0
0FE7E00007E0
07FFC0001FE0
03FFC0003FC0
01FF8000FF80
00FFC003FF00
007FFFFFFE00
003FFFFFF800
003FFFFFF000
007FFFFFC000
007C7FFE0000
00FC00000000
00F800000000
01F800000000
ENDCHAR
STARTCHAR C0249
ENCODING 249
SWIDTH 687 0
DWIDTH 44 0
BBX 42 55 0 -1
BITMAP
000FC0000000
0007C0000000
0003E0000000
0003F0000000
0001F0000000
0001F8000000
0000F8000000
00007C000000
00007E000000
00003E000000
00003F000000
00001F000000
00000F800000
00000FC00000
000000000000
F800000003C0
F800000003C0
F800000003C0
F800000003C0
F800000003C0
F800000003C0
F800000003C0
F800000003C0
F800000003C0
F800000003C0
F800000003C0
F800000003C0
F800000003C0
F800000003C0
F800000003C0
F800000003C0
F800000003C0
F800000003C0
F800000003C0
F800000003C0
F800000003C0
F800000003C0
F800000003C0
F800000003C0
F800000003C0
F800000003C0
F800000007C0
F800000007C0
7800000007C0
7C00000007C0
7C0000000F80
7E0000000F80
3E0000001F80
3F0000001F00
1F0000003F00
1F8000007E00
0FC000007E00
0FE00000FC00
07F00001F800
03F80007F800
01FE001FF000
00FFC0FFE000
007FFFFF8000
003FFFFF0000
000FFFFE0000
0003FFF00000
00007F800000
ENDCHAR
STARTCHAR C0250
ENCODING 250
SWIDTH 687 0
DWIDTH 44 0
BBX 42 55 0 -1
BITMAP
0000007C0000
000000FC0000
000001F80000
000001F00000
000003F00000
000003E00000
000007C00000
00000FC00000
00000F800000
00001F800000
00001F000000
00003E000000
00007E000000
00007C000000
000000000000
F800000003C0
F800000003C0
F800000003C0
F800000003C0
F800000003C0
F800000003C0
F800000003C0
F800000003C0
F800000003C0
F800000003C0
F800000003C0
F800000003C0
F800000003C0
F800000003C0
F800000003C0
F800000003C0
F800000003C0
F800000003C0
F800000003C0
F800000003C0
F800000003C0
F800000003C0
F800000003C0
F800000003C0
F800000003C0
F800000003C0
F800000007C0
F800000007C0
7800000007C0
7C00000007C0
7C0000000F80
7E0000000F80
3E0000001F80
3F0000001F00
1F0000003F00
1F8000007E00
0FC000007E00
0FE00000FC00
07F00001F800
03F80007F800
01FE001FF000
00FFC0FFE000
007FFFFF8000
003FFFFF0000
000FFFFE0000
0003FFF00000
00007F800000
ENDCHAR
STARTCHAR C0251
ENCODING 251
SWIDTH 687 0
DWIDTH 44 0
BBX 42 55 0 -1
BITMAP
000004000000
00000C000000
00000E000000
00001F000000
00003F000000
00003F800000
00007F800000
0000FFC00000
0000FBE00000
0001F3E00000
F800000003C0
F800000003C0
F800000003C0
F800000003C0
F800000003C0
F800000003C0
F800000003C0
F800000003C0
F800000003C0
F800000003C0
F800000003C0
F800000003C0
F800000003C0
F800000003C0
F800000003C0
F800000003C0
F800000003C0
F800000003C0
F800000003C0
F800000003C0
F800000003C0
F800000003C0
F800000003C0
F800000003C0
F800000003C0
F800000003C0
F800000007C0
F800000007C0
7800000007C0
7C00000007C0
7C0000000F80
7E0000000F80
3E0000001F80
3F0000001F00
1F0000003F00
1F8000007E00
0FC000007E00
0FE00000FC00
07F00001F800
03F80007F800
01FE001FF000
00FFC0FFE000
007FFFFF8000
003FFFFF0000
000FFFFE0000
0003FFF00000
00007F800000
ENDCHAR
STARTCHAR C0252
ENCODING 252
SWIDTH 687 0
DWIDTH 44 0
BBX 42 54 0 -1
BITMAP
0000E0E00000
0003F3F00000
0003FBF80000
0003FBF80000
0003FBF80000
0003F3F00000
0001F1F00000
F800000003C0
F800000003C0
F800000003C0
F800000003C0
F800000003C0
F800000003C0
F800000003C0
F800000003C0
F800000003C0
F800000003C0
F800000003C0
F800000003C0
F800000003C0
F800000003C0
F800000003C0
F800000003C0
F800000003C0
F800000003C0
F800000003C0
F800000003C0
F800000003C0
F800000003C0
F800000003C0
F800000003C0
F800000003C0
F800000003C0
F800000007C0
F800000007C0
7800000007C0
7C00000007C0
7C0000000F80
7E0000000F80
3E0000001F80
3F0000001F00
1F0000003F00
1F8000007E00
0FC000007E00
0FE00000FC00
07F00001F800
03F80007F800
01FE001FF000
00FFC0FFE000
007FFFFF8000
003FFFFF0000
000FFFFE0000
0003FFF00000
00007F800000
ENDCHAR
STARTCHAR C0253
ENCODING 253
SWIDTH 609 0
DWIDTH 39 0
BBX 38 55 0 -1
BITMAP
000007C000
00000FC000
00000F8000
00001F8000
00003F0000
00003E0000
00007E0000
00007C0000
F800F8007C
7C01F800FC
7C000000F8
3E000001F8
3E000001F0
1F000003E0
1F800003E0
0F800007C0
0FC00007C0
07C0000F80
07E0000F80
03E0001F00
03F0001F00
01F0003E00
01F8007E00
00F8007C00
00FC00FC00
007C00F800
003E01F800
003E01F000
001F03F000
001F03E000
000F87E000
000F87C000
0007CFC000
0007CF8000
0003FF0000
0003FF0000
0001FE0000
0001FE0000
0000FC0000
0000FC0000
00007C0000
00007C0000
00007C0000
00007C0000
00007C0000
00007C0000
00007C0000
00007C0000
00007C0000
00007C0000
00007C0000
00007C0000
00007C0000
00007C0000
00007C0000
ENDCHAR
STARTCHAR C0254
ENCODING 254
SWIDTH 546 0
DWIDTH 35 0
BBX 33 47 0 -1
BITMAP
FFFF000000
FFFFF80000
FFFFFF0000
FFFFFF8000
FFFFFFE000
F8003FF000
F80007F800
F80001FC00
F80000FC00
F800007E00
F800003E00
F800003F00
F800001F00
F800001F00
F800001F00
F800000F80
F800000F80
F800000F80
F800000F80
F800000F80
F800001F00
F800001F00
F800001F00
F800003F00
F800003E00
F800007E00
F80000FC00
F80003FC00
F8000FF800
F800FFF000
FFFFFFE000
FFFFFF8000
FFFFFE0000
FFFFF80000
F800000000
F800000000
F800000000
F800000000
F800000000
F800000000
F800000000
F800000000
F800000000
F800000000
F800000000
F800000000
F800000000
ENDCHAR
STARTCHAR C0255
ENCODING 255
SWIDTH 703 0
DWIDTH 45 0
BBX 43 66 0 -13
BITMAP
0000E0E00000
0001F1F00000
0003FBF80000
0003FBF80000
0003FBF80000
0003FBF80000
0001F1F00000
F800000003E0
F800000003E0
F800000003E0
F800000003E0
F800000003E0
F800000003E0
F800000003E0
F800000003E0
F800000003E0
F800000003E0
F800000003E0
F800000003E0
F800000003E0
F800000003E0
F800000003E0
F800000003E0
F800000003E0
F800000003E0
F800000003E0
F800000003E0
F800000003E0
F800000003E0
F800000003E0
F800000003E0
F800000003E0
F800000003E0
F800000003E0
F800000003E0
FC00000003E0
7C00000007E0
7C00000007E0
7E00000007E0
3E0000000FE0
3F0000000FE0
3F0000001FE0
1F8000003FE0
1FC000003FE0
0FC000007FE0
07E00000FFE0
03F80001FFE0
03FC0007FBE0
01FF001FF3E0
00FFFFFFE3E0
003FFFFF83E0
001FFFFF03E0
0007FFFC03E0
0001FFF003E0
0000000003E0
0000000007E0
7C00000007C0
7C00000007C0
7E0000000FC0
3E0000000F80
3F0000001F80
3F0000001F80
1F8000003F00
1FC000007F00
0FE00000FE00
07F00001FC00
07F80003FC00
03FC0007F800
01FF803FF000
00FFFFFFE000
003FFFFFC000
001FFFFF0000
0007FFFE0000
0001FFF00000
00001F000000
ENDCHAR
ENDFONT
